<svg width="1920.000000" height="1080.000000" viewBox="0 0 1920 1080" fill="none" xmlns="http://www.w3.org/2000/svg" xmlns:xlink="http://www.w3.org/1999/xlink">
	<desc>
			Created with Pixso.
	</desc>
	<defs>
		<clipPath id="clip1_128">
			<rect id="admin giriş" width="1920.000000" height="1080.000000" fill="white" fill-opacity="0"/>
		</clipPath>
	</defs>
	<g style="mix-blend-mode:normal">
		<rect id="admin giriş" width="1920.000000" height="1080.000000" fill="#FFFFFF" fill-opacity="1.000000"/>
		<g clip-path="url(#clip1_128)">
			<g style="mix-blend-mode:normal">
				<rect id="Rectangle 47" x="353.000000" y="-9.000000" width="1213.000000" height="1088.000000" fill="#D71923" fill-opacity="1.000000"/>
				<rect id="Rectangle 47" x="353.500000" y="-8.500000" width="1212.000000" height="1087.000000" stroke="#707070" stroke-opacity="0" stroke-width="1.000000"/>
			</g>
			<g opacity="0.200000" style="mix-blend-mode:normal">
				<path id="Path 41" d="M0 637C0 637 22.96 960 959 960C1895.03 960 1920 637 1920 637L1920 1080L0 1080L0 637Z" fill="#FFFFFF" fill-opacity="1.000000" fill-rule="nonzero"/>
				<path id="Path 41" d="" fill="#707070" fill-opacity="0" fill-rule="evenodd"/>
			</g>
			<g style="mix-blend-mode:normal">
				<path id="Path 40" d="M0 534.66C0 534.66 23.71 1074 959.75 1074C1895.78 1074 1920 534.66 1920 534.66L1920 1080L0 1080L0 534.66Z" fill="#FFFFFF" fill-opacity="1.000000" fill-rule="nonzero"/>
				<path id="Path 40" d="" fill="#707070" fill-opacity="0" fill-rule="evenodd"/>
			</g>
			<g style="mix-blend-mode:normal">
				<path id="Path 35" d="M1386.31 995.27L1360.33 995.27L1360.33 1073.06L1357.81 1073.06L1357.81 1029.59L1342.32 1029.59L1342.32 1073.06L1339.75 1073.06L1339.75 1041.53L1328.86 1041.53L1328.86 914.95L1322.3 914.95L1322.3 903.3L1319.47 903.3L1319.47 894.42L1310.14 894.42L1310.14 885.26L1302.06 885.26L1302.06 846.78L1299.12 846.78L1299.12 885.26L1291.04 885.26L1291.04 894.42L1281.72 894.42L1281.72 903.3L1278.88 903.3L1278.88 914.95L1272.31 914.95L1272.31 1073.06L1269.14 1073.06L1269.14 1027.06L1249.3 1027.06L1249.3 1073.06L1237.79 1073.06L1237.79 1068.46L1232.88 1068.46L1232.88 994.21L1201.53 994.21L1201.53 1073.06L1182.47 1073.06C1191.62 1022.96 1180.19 977.44 1152.55 934.56L1165.35 934.56L1165.35 927.08L1147.54 927.08C1133.63 907.02 1116.17 887.52 1095.63 868.38L1095.63 834.82L1091.9 834.82L1091.9 864.94C1091.81 864.86 1091.71 864.77 1091.62 864.69L1091.96 1073.06L1084.15 1073.06L1084.15 1048.57L1062.34 1048.57L1062.34 1073.06L1060.31 1073.06L1061.16 929.33L1028.82 895L1028.82 860.04L1025.68 860.04L1025.68 891.66L1025.24 929.1L1031.31 929.1L1031.31 951.97L1024.79 951.97L1023.55 1053.53L1009.45 1053.67L1008.29 980.1L1001.78 980.1L1001.78 962.25L1007.85 962.25L1007.39 933.04L1007.39 908.37L1004.26 908.37L1004.26 935.63L971.92 962.43L972.54 1044.1L964.36 1044.1L964.36 1056.89L963.8 1056.89L963.8 990.33L960.7 990.33L960.7 983.99L959.36 983.99L959.36 979.17L954.94 979.17L954.94 974.19L951.12 974.19L951.12 953.28L949.73 953.28L949.73 974.19L945.91 974.19L945.91 979.17L941.5 979.17L941.5 983.99L940.15 983.99L940.15 990.33L937.05 990.33L937.05 1057.56L936.21 1057.56L936.21 1064.78L929.14 1064.78L929.14 1047.47L926.84 1047.47L926.84 1034.39L922.71 1028.18L906.14 1028.18L906.2 1064.78L904.44 1064.78L904.44 1072.07L903.21 1072.07L903.21 999.92L873.7 999.92L873.7 1072.07L872.91 1072.07L872.91 1022.32L855.31 1022.32L855.31 1072.07L847.03 1072.07L847.03 1045.09L840.97 1045.09L840.97 1065.8L827.22 1065.8L827.22 1031.09L818.41 1031.09C815.38 1010.39 797.25 994.51 775.31 994.51C751.28 994.51 731.76 1013.62 731.76 1037.25C731.76 1051.61 738.99 1064.31 750.07 1072.07L737.65 1072.07L737.65 1066.78L732.28 1066.78L732.28 1049.43L722.41 1049.43L722.41 1045.3C719.25 1044.47 716.4 1043.85 712.93 1043.85L712.93 1017C710.08 1015.35 706.93 1013.9 703.13 1014.11L703.13 970.32C700.29 968.26 697.45 966.4 693.65 967.64L693.65 930.67C691.13 929.02 688.59 927.57 685.75 927.98L685.75 898.86C683.53 897.42 681.33 896.18 678.8 896.18L678.8 865.61C677.84 864.37 676.59 863.34 675.64 863.13L675.64 825.76L672.15 825.76L672.15 859.22C670.27 857.57 669 859.01 667.73 860.87L667.73 878.42C666.47 878.63 665.52 879.66 664.58 880.9L664.58 896.8C663.31 897.43 662.04 898.04 660.78 898.87L660.78 928.61C659.52 929.02 658.26 929.85 656.99 930.68L656.99 968.26C654.15 968.06 651.62 969.5 649.4 971.36L649.4 1014.53C646.88 1014.94 644.66 1015.98 642.45 1017.01L642.45 1043.86C640.86 1043.99 639.27 1044.28 637.76 1044.64L637.76 1039.18L617.82 1039.18L617.82 1060.68L608.71 1060.68L608.71 1072.07L598.3 1072.07L598.3 902.7L588.64 902.7L588.64 886.7L564.51 886.7L564.51 902.7L555.2 902.7L555.2 929.17L543.13 929.17L543.13 958.15L535.36 958.15L535.36 1072.07L532.84 1072.07L532.84 1048.86L502.45 1048.86L502.45 1049.62L502.22 1049.62L502.22 923.24L498.08 923.24L498.08 885.96L491.61 885.96L491.61 851.92L481.41 851.92L481.41 831.34L477.48 831.34L477.48 812.26L473.08 812.26L473.08 831.33L464.07 831.33L464.07 812.26L459.67 812.26L459.67 831.33L455.53 831.33L455.53 851.92L445.34 851.92L445.34 885.96L438.87 885.96L438.87 923.24L434.73 923.24L434.73 1038.98L427.1 1038.98L427.1 1053.57L398.18 1053.57L398.18 1054.36L395.12 1054.36L395.12 1062.6L393.12 1062.6L393.12 1058.91L390.52 1058.91L390.52 1050.42L385.8 1046.4L366.99 1046.4L367.03 1062.6L359.01 1062.6L359.01 1080L1386.57 1080L1386.57 1073.05L1386.31 1073.05L1386.31 995.27ZM775.35 1004.69L782.46 1072.07L775.32 1072.07L775.32 1037.1L771.78 1037.1L775.35 1004.69ZM813.68 1063.35L809.82 1063.35C811.26 1061.51 812.55 1059.56 813.68 1057.5L813.68 1063.35ZM734.1 1037.26C734.1 1014.9 752.58 996.8 775.32 996.8C795.96 996.8 813.04 1011.67 816.05 1031.1L813.68 1031.1L813.68 1052.05C812.02 1056.19 809.68 1060 806.8 1063.35L796.84 1063.35L796.84 1071.75C796.65 1071.86 796.47 1071.97 796.28 1072.07L784.25 1072.07L776.74 1000.58L775.18 1000.76L774.02 1000.62L770 1037.1L750.74 1037.1L750.74 1069.71C740.65 1062.32 734.1 1050.54 734.1 1037.26ZM1122.18 928.17C1120.69 914.05 1118.6 904.4 1113.94 895.33C1123.67 906.51 1132.43 917.38 1140.14 928.17L1122.18 928.17ZM1099.61 886.47C1108.39 899.76 1112.97 910.9 1114.84 928.17L1101.25 928.17L1099.61 886.47Z" fill="#FFFFFF" fill-opacity="1.000000" fill-rule="nonzero"/>
				<path id="Path 35" d="M1360.33 995.27L1360.33 1073.06L1357.81 1073.06L1357.81 1029.59L1342.32 1029.59L1342.32 1073.06L1339.75 1073.06L1339.75 1041.53L1328.86 1041.53L1328.86 914.95L1322.3 914.95L1322.3 903.3L1319.47 903.3L1319.47 894.42L1310.14 894.42L1310.14 885.26L1302.06 885.26L1302.06 846.78L1299.12 846.78L1299.12 885.26L1291.04 885.26L1291.04 894.42L1281.72 894.42L1281.72 903.3L1278.88 903.3L1278.88 914.95L1272.31 914.95L1272.31 1073.06L1269.14 1073.06L1269.14 1027.06L1249.3 1027.06L1249.3 1073.06L1237.79 1073.06L1237.79 1068.46L1232.88 1068.46L1232.88 994.21L1201.53 994.21L1201.53 1073.06L1182.47 1073.06C1191.62 1022.96 1180.19 977.44 1152.55 934.56L1165.35 934.56L1165.35 927.08L1147.54 927.08C1133.63 907.02 1116.17 887.52 1095.63 868.38L1095.63 834.82L1091.9 834.82L1091.9 864.94C1091.81 864.86 1091.71 864.77 1091.62 864.69L1091.96 1073.06L1084.15 1073.06L1084.15 1048.57L1062.34 1048.57L1062.34 1073.06L1060.31 1073.06L1061.16 929.33L1028.82 895L1028.82 860.04L1025.68 860.04L1025.68 891.66L1025.24 929.1L1031.31 929.1L1031.31 951.97L1024.79 951.97L1023.55 1053.53L1009.45 1053.67L1008.29 980.1L1001.78 980.1L1001.78 962.25L1007.85 962.25L1007.39 933.04L1007.39 908.37L1004.26 908.37L1004.26 935.63L971.92 962.43L972.54 1044.1L964.36 1044.1L964.36 1056.89L963.8 1056.89L963.8 990.33L960.7 990.33L960.7 983.99L959.36 983.99L959.36 979.17L954.94 979.17L954.94 974.19L951.12 974.19L951.12 953.28L949.73 953.28L949.73 974.19L945.91 974.19L945.91 979.17L941.5 979.17L941.5 983.99L940.15 983.99L940.15 990.33L937.05 990.33L937.05 1057.56L936.21 1057.56L936.21 1064.78L929.14 1064.78L929.14 1047.47L926.84 1047.47L926.84 1034.39L922.71 1028.18L906.14 1028.18L906.2 1064.78L904.44 1064.78L904.44 1072.07L903.21 1072.07L903.21 999.92L873.7 999.92L873.7 1072.07L872.91 1072.07L872.91 1022.32L855.31 1022.32L855.31 1072.07L847.03 1072.07L847.03 1045.09L840.97 1045.09L840.97 1065.8L827.22 1065.8L827.22 1031.09L818.41 1031.09C815.38 1010.39 797.25 994.51 775.31 994.51C751.28 994.51 731.76 1013.62 731.76 1037.25C731.76 1051.61 738.99 1064.31 750.07 1072.07L737.65 1072.07L737.65 1066.78L732.28 1066.78L732.28 1049.43L722.41 1049.43L722.41 1045.3C719.25 1044.47 716.4 1043.85 712.93 1043.85L712.93 1017C710.08 1015.35 706.93 1013.9 703.13 1014.11L703.13 970.32C700.29 968.26 697.45 966.4 693.65 967.64L693.65 930.67C691.13 929.02 688.59 927.57 685.75 927.98L685.75 898.86C683.53 897.42 681.33 896.18 678.8 896.18L678.8 865.61C677.84 864.37 676.59 863.34 675.64 863.13L675.64 825.76L672.15 825.76L672.15 859.22C670.27 857.57 669 859.01 667.73 860.87L667.73 878.42C666.47 878.63 665.52 879.66 664.58 880.9L664.58 896.8C663.31 897.43 662.04 898.04 660.78 898.87L660.78 928.61C659.52 929.02 658.26 929.85 656.99 930.68L656.99 968.26C654.15 968.06 651.62 969.5 649.4 971.36L649.4 1014.53C646.88 1014.94 644.66 1015.98 642.45 1017.01L642.45 1043.86C640.86 1043.99 639.27 1044.28 637.76 1044.64L637.76 1039.18L617.82 1039.18L617.82 1060.68L608.71 1060.68L608.71 1072.07L598.3 1072.07L598.3 902.7L588.64 902.7L588.64 886.7L564.51 886.7L564.51 902.7L555.2 902.7L555.2 929.17L543.13 929.17L543.13 958.15L535.36 958.15L535.36 1072.07L532.84 1072.07L532.84 1048.86L502.45 1048.86L502.45 1049.62L502.22 1049.62L502.22 923.24L498.08 923.24L498.08 885.96L491.61 885.96L491.61 851.92L481.41 851.92L481.41 831.34L477.48 831.34L477.48 812.26L473.08 812.26L473.08 831.33L464.07 831.33L464.07 812.26L459.67 812.26L459.67 831.33L455.53 831.33L455.53 851.92L445.34 851.92L445.34 885.96L438.87 885.96L438.87 923.24L434.73 923.24L434.73 1038.98L427.1 1038.98L427.1 1053.57L398.18 1053.57L398.18 1054.36L395.12 1054.36L395.12 1062.6L393.12 1062.6L393.12 1058.91L390.52 1058.91L390.52 1050.42L385.8 1046.4L366.99 1046.4L367.03 1062.6L359.01 1062.6L359.01 1080L1386.57 1080L1386.57 1073.05L1386.31 1073.05L1386.31 995.27L1360.33 995.27ZM782.46 1072.07L775.32 1072.07L775.32 1037.1L771.78 1037.1L775.35 1004.69L782.46 1072.07ZM809.82 1063.35C811.26 1061.51 812.55 1059.56 813.68 1057.5L813.68 1063.35L809.82 1063.35ZM775.32 996.8C795.96 996.8 813.04 1011.67 816.05 1031.1L813.68 1031.1L813.68 1052.05C812.02 1056.19 809.68 1060 806.8 1063.35L796.84 1063.35L796.84 1071.75C796.65 1071.86 796.47 1071.97 796.28 1072.07L784.25 1072.07L776.74 1000.58L775.18 1000.76L774.02 1000.62L770 1037.1L750.74 1037.1L750.74 1069.71C740.65 1062.32 734.1 1050.54 734.1 1037.26C734.1 1014.9 752.58 996.8 775.32 996.8ZM1113.94 895.33C1123.67 906.51 1132.43 917.38 1140.14 928.17L1122.18 928.17C1120.69 914.05 1118.6 904.4 1113.94 895.33ZM1114.84 928.17L1101.25 928.17L1099.61 886.47C1108.39 899.76 1112.97 910.9 1114.84 928.17Z" stroke="#707070" stroke-opacity="0" stroke-width="1.000000"/>
			</g>
			<g style="mix-blend-mode:normal">
				<path id="Path 36" d="M1532.84 1054.88L1518.87 1054.88L1518.87 1044L1497.73 1044L1497.73 1020.71L1483.73 1020.71L1483.73 1041.85L1482.83 1041.85L1482.83 931.91L1477.83 931.91L1477.83 921.45L1475.68 921.45L1475.68 913.49L1468.57 913.49L1468.57 905.26L1462.42 905.26L1462.42 870.74L1460.18 870.74L1460.18 905.26L1454.03 905.26L1454.03 913.49L1446.93 913.49L1446.93 921.45L1444.77 921.45L1444.77 931.91L1439.78 931.91L1439.78 1042.97L1438.41 1042.97L1438.41 1054.88L1435.59 1054.88L1435.59 1044.28L1431.89 1044.28L1431.89 1029.92L1425.24 1023.11L1398.57 1023.11L1398.65 1054.88L1387.28 1054.88L1387.28 1080L1533.21 1080L1533.21 1055.54C1533.21 1055.17 1533.03 1054.88 1532.84 1054.88Z" fill="#FFFFFF" fill-opacity="1.000000" fill-rule="nonzero"/>
				<path id="Path 36" d="M1518.87 1054.88L1518.87 1044L1497.73 1044L1497.73 1020.71L1483.73 1020.71L1483.73 1041.85L1482.83 1041.85L1482.83 931.91L1477.83 931.91L1477.83 921.45L1475.68 921.45L1475.68 913.49L1468.57 913.49L1468.57 905.26L1462.42 905.26L1462.42 870.74L1460.18 870.74L1460.18 905.26L1454.03 905.26L1454.03 913.49L1446.93 913.49L1446.93 921.45L1444.77 921.45L1444.77 931.91L1439.78 931.91L1439.78 1042.97L1438.41 1042.97L1438.41 1054.88L1435.59 1054.88L1435.59 1044.28L1431.89 1044.28L1431.89 1029.92L1425.24 1023.11L1398.57 1023.11L1398.65 1054.88L1387.28 1054.88L1387.28 1080L1533.21 1080L1533.21 1055.54C1533.21 1055.17 1533.03 1054.88 1532.84 1054.88L1518.87 1054.88Z" stroke="#707070" stroke-opacity="0" stroke-width="1.000000"/>
			</g>
			<g style="mix-blend-mode:normal">
				<path id="Path 37" d="M1382.55 1043.71L1366.19 1043.71L1362.13 1048.06L1362.13 1051.06L1326.51 1051.06L1326.51 1045.65L1308.78 1045.65L1308.78 1051.06L1303.44 1051.06L1303.44 1044.13L1296.02 1044.13L1296.02 1023.24L1269.63 1023.24L1269.63 1051.06L1264.82 1051.06L1264.82 1036.21L1238.43 1036.21L1238.43 1054.18L1221.57 1054.18L1221.57 1051.5L1218.17 1047.6L1204.5 1047.6L1204.51 1054.18L1139.34 1054.18L1139.34 1051.07L1060.52 1051.06L1060.54 1043.69L1044.18 1043.69L1040.13 1048.07L1040.13 1051.06L997.84 1051.06L997.84 1039.03L978.37 1039.03L978.37 1051.06L965.63 1051.06L965.63 1023.26L939.23 1023.26L939.23 1051.06L934.43 1051.06L934.43 1036.19L908.03 1036.19L908.03 1052.47L906.94 1052.47L906.94 1046.89L902.07 1046.89L902.09 1038.48L883.49 1038.48L878.89 1043.49L878.89 1046.89L839.41 1046.89C841.09 1036.06 842.06 1023.25 842.06 1009.53C842.06 970.59 833.79 944.66 824.63 939.04C815.64 944.66 807.25 970.59 807.25 1009.53C807.25 1020.04 807.82 1030.02 808.84 1038.98L803.78 1038.98L803.78 1015.06L773.81 1015.06L773.81 1046.89L768.37 1046.89L768.37 1029.91L738.36 1029.91L738.36 1050.47L719.22 1050.47L719.22 1047.38L715.37 1042.94L699.82 1042.94L699.84 1050.47L625.84 1050.47L625.84 1046.93L536.3 1046.93L536.32 1038.49L517.75 1038.49L513.11 1043.49L513.11 1046.93L428.51 1046.93L428.51 1015.14L398.54 1015.14L398.54 1046.93L393.07 1046.93L393.07 1019.31L363.11 1019.31L363.11 1048.49L358.68 1048.49L358.68 1052.51L353 1052.51L353 1080L1386.57 1080L1386.57 1051.06L1382.53 1051.06L1382.55 1043.71Z" fill="#FFFFFF" fill-opacity="1.000000" fill-rule="nonzero"/>
				<path id="Path 37" d="M1366.19 1043.71L1362.13 1048.06L1362.13 1051.06L1326.51 1051.06L1326.51 1045.65L1308.78 1045.65L1308.78 1051.06L1303.44 1051.06L1303.44 1044.13L1296.02 1044.13L1296.02 1023.24L1269.63 1023.24L1269.63 1051.06L1264.82 1051.06L1264.82 1036.21L1238.43 1036.21L1238.43 1054.18L1221.57 1054.18L1221.57 1051.5L1218.17 1047.6L1204.5 1047.6L1204.51 1054.18L1139.34 1054.18L1139.34 1051.07L1060.52 1051.06L1060.54 1043.69L1044.18 1043.69L1040.13 1048.07L1040.13 1051.06L997.84 1051.06L997.84 1039.03L978.37 1039.03L978.37 1051.06L965.63 1051.06L965.63 1023.26L939.23 1023.26L939.23 1051.06L934.43 1051.06L934.43 1036.19L908.03 1036.19L908.03 1052.47L906.94 1052.47L906.94 1046.89L902.07 1046.89L902.09 1038.48L883.49 1038.48L878.89 1043.49L878.89 1046.89L839.41 1046.89C841.09 1036.06 842.06 1023.25 842.06 1009.53C842.06 970.59 833.79 944.66 824.63 939.04C815.64 944.66 807.25 970.59 807.25 1009.53C807.25 1020.04 807.82 1030.02 808.84 1038.98L803.78 1038.98L803.78 1015.06L773.81 1015.06L773.81 1046.89L768.37 1046.89L768.37 1029.91L738.36 1029.91L738.36 1050.47L719.22 1050.47L719.22 1047.38L715.37 1042.94L699.82 1042.94L699.84 1050.47L625.84 1050.47L625.84 1046.93L536.3 1046.93L536.32 1038.49L517.75 1038.49L513.11 1043.49L513.11 1046.93L428.51 1046.93L428.51 1015.14L398.54 1015.14L398.54 1046.93L393.07 1046.93L393.07 1019.31L363.11 1019.31L363.11 1048.49L358.68 1048.49L358.68 1052.51L353 1052.51L353 1080L1386.57 1080L1386.57 1051.06L1382.53 1051.06L1382.55 1043.71L1366.19 1043.71Z" stroke="#707070" stroke-opacity="0" stroke-width="1.000000"/>
			</g>
			<g style="mix-blend-mode:normal">
				<path id="Path 38" d="M1552.06 1070.87L1552.06 1032.26L1537.64 1032.22L1537.64 1012.34L1506.29 1012.34L1506.29 1032.22L1485.77 1032.22L1485.77 986.3L1443.27 986.3L1443.27 1032.22L1435.55 1032.22L1435.55 1007.68L1393.06 1007.68L1393.06 1034.54L1386.78 1034.54L1386.78 1080L1566.09 1080L1566.09 1070.87L1552.06 1070.87Z" fill="#FFFFFF" fill-opacity="1.000000" fill-rule="nonzero"/>
				<path id="Path 38" d="M1552.06 1032.26L1537.64 1032.22L1537.64 1012.34L1506.29 1012.34L1506.29 1032.22L1485.77 1032.22L1485.77 986.3L1443.27 986.3L1443.27 1032.22L1435.55 1032.22L1435.55 1007.68L1393.06 1007.68L1393.06 1034.54L1386.78 1034.54L1386.78 1080L1566.09 1080L1566.09 1070.87L1552.06 1070.87L1552.06 1032.26Z" stroke="#707070" stroke-opacity="0" stroke-width="1.000000"/>
			</g>
			<g style="mix-blend-mode:normal">
				<path id="Path 39" d="M1531.13 1002.38L1531.13 1023.47L1519 1023.47L1519 1060.74L1510.32 1060.74L1510.32 1050.94L1485.56 1050.94L1485.56 1060.74L1479.49 1060.74L1479.49 1046.24L1434.18 1046.24L1434.18 1060.74L1427.03 1060.74L1427.03 1053.02L1423.33 1053.02L1423.33 1042.18L1416.69 1037.03L1390.02 1037.03L1390.09 1060.74L1381 1060.74L1381 1018.04L1355.02 1018.04L1355.02 1035.38L1337 1035.38L1337 1058.76L1324.43 1058.76L1324.43 1053.41L1311.35 1053.41L1311.35 1042.15L1299.43 1042.15L1299.43 1065.42L1295.31 1065.42L1295.31 1029.88L1271.26 1029.88L1271.26 1065.42L1263.82 1065.42L1263.82 1046.79L1243.98 1046.79L1243.98 1056.34L1238.94 1056.34L1238.94 1044.9L1225.4 1044.9L1225.4 1056.34L1218.3 1056.34L1218.3 1017.21L1196.22 1017.21L1196.22 1060.31L1188.77 1060.31L1188.77 1044.9L1176.78 1044.9L1176.78 1028.3L1150.39 1028.3L1150.39 1058.48L1144.53 1058.48L1144.53 1048.43L1126.96 1048.43L1126.96 1063.19L1121.62 1063.19L1117.71 1063.14L1117.71 1037.52L1087.41 1037.52L1087.41 1060.55L1069.29 1060.55L1069.29 1052.18L1056.46 1052.18L1056.46 1045.59L1029.73 1045.59L1029.73 1065.42L1020.54 1065.42L1020.54 1030.07L993.81 1030.07L993.81 1045.77L986.27 1045.77L986.27 1065.42L980.88 1065.42L980.88 1053.6L965.49 1053.6L965.49 1065.42L961.73 1065.42L961.73 1059.56L933.58 1059.56L933.58 1060.15L930.89 1060.15L930.89 1065.42L929.14 1065.42L929.14 1063.67L926.84 1063.67L926.84 1057.11L922.71 1053.99L906.15 1053.99L906.17 1063.06L900.33 1063.06L900.33 1009.12L870.78 1009.12L870.78 1047.43L868.14 1047.43L868.14 1063.06L867.94 1063.06L867.94 1028.97L850.34 1028.97L850.34 1056.29L821.2 1056.29L821.2 1036.72L807.66 1036.72L807.66 1056.29L802.98 1056.29L802.98 1022.69L775.65 1022.69L775.65 1056.29L767.21 1056.29L767.21 1042.02L744.68 1042.02L744.68 1062.73L724.03 1062.73L724.03 1043.32L715.5 1043.32L715.5 1019.98L690.42 1019.98L690.42 1043.32L679.1 1043.32L679.1 1036.43L668.36 1036.43L668.36 1029.91L638.39 1029.91L638.39 1055.39L631.75 1055.39L631.75 1043.9L611.76 1043.9L611.76 1062.93L605.7 1062.93L605.7 1060.67L601.27 1060.67L601.27 1031.39L566.84 1031.39L566.84 1055.1L535.65 1055.1L535.65 1039.72L510.17 1039.72L510.17 999.32L475.61 999.32L475.61 1050.05L462.05 1050.05L462.05 1021.79L427.61 1021.79L427.61 1047.21L412.68 1047.21L412.68 1034.35C409.49 1027.31 405.63 1021.2 395.77 1023.83L395.77 1063.06L390.49 1063.06L390.49 1054.92L387.86 1054.92L387.86 1044.84L383.18 1040.04L364.37 1040.04L364.41 1063.06L353 1063.06L353 1080L1567 1080L1567 1002.37L1531.13 1002.38Z" fill="#FFFFFF" fill-opacity="1.000000" fill-rule="nonzero"/>
				<path id="Path 39" d="M1531.13 1023.47L1519 1023.47L1519 1060.74L1510.32 1060.74L1510.32 1050.94L1485.56 1050.94L1485.56 1060.74L1479.49 1060.74L1479.49 1046.24L1434.18 1046.24L1434.18 1060.74L1427.03 1060.74L1427.03 1053.02L1423.33 1053.02L1423.33 1042.18L1416.69 1037.03L1390.02 1037.03L1390.09 1060.74L1381 1060.74L1381 1018.04L1355.02 1018.04L1355.02 1035.38L1337 1035.38L1337 1058.76L1324.43 1058.76L1324.43 1053.41L1311.35 1053.41L1311.35 1042.15L1299.43 1042.15L1299.43 1065.42L1295.31 1065.42L1295.31 1029.88L1271.26 1029.88L1271.26 1065.42L1263.82 1065.42L1263.82 1046.79L1243.98 1046.79L1243.98 1056.34L1238.94 1056.34L1238.94 1044.9L1225.4 1044.9L1225.4 1056.34L1218.3 1056.34L1218.3 1017.21L1196.22 1017.21L1196.22 1060.31L1188.77 1060.31L1188.77 1044.9L1176.78 1044.9L1176.78 1028.3L1150.39 1028.3L1150.39 1058.48L1144.53 1058.48L1144.53 1048.43L1126.96 1048.43L1126.96 1063.19L1121.62 1063.19L1117.71 1063.14L1117.71 1037.52L1087.41 1037.52L1087.41 1060.55L1069.29 1060.55L1069.29 1052.18L1056.46 1052.18L1056.46 1045.59L1029.73 1045.59L1029.73 1065.42L1020.54 1065.42L1020.54 1030.07L993.81 1030.07L993.81 1045.77L986.27 1045.77L986.27 1065.42L980.88 1065.42L980.88 1053.6L965.49 1053.6L965.49 1065.42L961.73 1065.42L961.73 1059.56L933.58 1059.56L933.58 1060.15L930.89 1060.15L930.89 1065.42L929.14 1065.42L929.14 1063.67L926.84 1063.67L926.84 1057.11L922.71 1053.99L906.15 1053.99L906.17 1063.06L900.33 1063.06L900.33 1009.12L870.78 1009.12L870.78 1047.43L868.14 1047.43L868.14 1063.06L867.94 1063.06L867.94 1028.97L850.34 1028.97L850.34 1056.29L821.2 1056.29L821.2 1036.72L807.66 1036.72L807.66 1056.29L802.98 1056.29L802.98 1022.69L775.65 1022.69L775.65 1056.29L767.21 1056.29L767.21 1042.02L744.68 1042.02L744.68 1062.73L724.03 1062.73L724.03 1043.32L715.5 1043.32L715.5 1019.98L690.42 1019.98L690.42 1043.32L679.1 1043.32L679.1 1036.43L668.36 1036.43L668.36 1029.91L638.39 1029.91L638.39 1055.39L631.75 1055.39L631.75 1043.9L611.76 1043.9L611.76 1062.93L605.7 1062.93L605.7 1060.67L601.27 1060.67L601.27 1031.39L566.84 1031.39L566.84 1055.1L535.65 1055.1L535.65 1039.72L510.17 1039.72L510.17 999.32L475.61 999.32L475.61 1050.05L462.05 1050.05L462.05 1021.79L427.61 1021.79L427.61 1047.21L412.68 1047.21L412.68 1034.35C409.49 1027.31 405.63 1021.2 395.77 1023.83L395.77 1063.06L390.49 1063.06L390.49 1054.92L387.86 1054.92L387.86 1044.84L383.18 1040.04L364.37 1040.04L364.41 1063.06L353 1063.06L353 1080L1567 1080L1567 1002.37L1531.13 1002.38L1531.13 1023.47Z" stroke="#707070" stroke-opacity="0" stroke-width="1.000000"/>
			</g>
			<g style="mix-blend-mode:normal">
				<path id="Path 1" d="M893.15 150.54L896.61 142.14L898.22 142.14L893.56 153.09L892.71 153.09L888 142.14L889.69 142.14L893.15 150.54Z" fill="#FFFFFF" fill-opacity="1.000000" fill-rule="nonzero"/>
				<path id="Path 1" d="M896.61 142.14L898.22 142.14L893.56 153.09L892.71 153.09L888 142.14L889.69 142.14L893.15 150.54L896.61 142.14Z" stroke="#707070" stroke-opacity="0" stroke-width="1.000000"/>
			</g>
			<g style="mix-blend-mode:normal">
				<path id="Path 2" d="M906.53 141.29C906.26 141.29 905.99 141.19 905.79 140.99C905.59 140.8 905.48 140.53 905.49 140.26C905.49 139.99 905.59 139.73 905.79 139.55C905.99 139.36 906.26 139.26 906.53 139.27C906.8 139.27 907.05 139.37 907.24 139.56C907.43 139.74 907.54 139.99 907.54 140.26C907.55 140.81 907.08 141.27 906.53 141.29ZM905.78 153.09L905.78 142.14L907.26 142.14L907.26 153.09L905.78 153.09Z" fill="#FFFFFF" fill-opacity="1.000000" fill-rule="nonzero"/>
				<path id="Path 2" d="M905.79 140.99C905.59 140.8 905.48 140.53 905.49 140.26C905.49 139.99 905.59 139.73 905.79 139.55C905.99 139.36 906.26 139.26 906.53 139.27C906.8 139.27 907.05 139.37 907.24 139.56C907.43 139.74 907.54 139.99 907.54 140.26C907.55 140.81 907.08 141.27 906.53 141.29C906.26 141.29 905.99 141.19 905.79 140.99ZM905.78 142.14L907.26 142.14L907.26 153.09L905.78 153.09L905.78 142.14Z" stroke="#707070" stroke-opacity="0" stroke-width="1.000000"/>
			</g>
			<g style="mix-blend-mode:normal">
				<path id="Path 3" d="M923.1 153.09L914.91 153.09L914.91 152.19L920.87 143.56L915.18 143.56L915.18 142.16L922.94 142.16L922.94 143.1L917.05 151.7L923.1 151.7L923.1 153.09Z" fill="#FFFFFF" fill-opacity="1.000000" fill-rule="nonzero"/>
				<path id="Path 3" d="M914.91 153.09L914.91 152.19L920.87 143.56L915.18 143.56L915.18 142.16L922.94 142.16L922.94 143.1L917.05 151.7L923.1 151.7L923.1 153.09L914.91 153.09Z" stroke="#707070" stroke-opacity="0" stroke-width="1.000000"/>
			</g>
			<g style="mix-blend-mode:normal">
				<path id="Path 4" d="M937.73 153.09L930.91 153.09L930.91 142.14L937.73 142.14L937.73 143.55L932.4 143.55L932.4 146.83L937.33 146.83L937.33 148.23L932.4 148.23L932.4 151.68L937.73 151.68L937.73 153.09Z" fill="#FFFFFF" fill-opacity="1.000000" fill-rule="nonzero"/>
				<path id="Path 4" d="M930.91 153.09L930.91 142.14L937.73 142.14L937.73 143.55L932.4 143.55L932.4 146.83L937.33 146.83L937.33 148.23L932.4 148.23L932.4 151.68L937.73 151.68L937.73 153.09L930.91 153.09Z" stroke="#707070" stroke-opacity="0" stroke-width="1.000000"/>
			</g>
			<g style="mix-blend-mode:normal">
				<path id="Path 5" d="M954.27 153.09L952.66 153.09L951.55 150.25L947.39 150.25L946.28 153.09L944.66 153.09L949.09 142.14L949.89 142.14L954.27 153.09ZM951.05 148.86L949.48 144.73L947.89 148.86L951.05 148.86Z" fill="#FFFFFF" fill-opacity="1.000000" fill-rule="nonzero"/>
				<path id="Path 5" d="M952.66 153.09L951.55 150.25L947.39 150.25L946.28 153.09L944.66 153.09L949.09 142.14L949.89 142.14L954.27 153.09L952.66 153.09ZM949.48 144.73L947.89 148.86L951.05 148.86L949.48 144.73Z" stroke="#707070" stroke-opacity="0" stroke-width="1.000000"/>
			</g>
			<g style="mix-blend-mode:normal">
				<path id="Path 6" d="M969.13 153.09L961.77 153.09L961.77 142.14L963.25 142.14L963.25 151.66L969.13 151.66L969.13 153.09Z" fill="#FFFFFF" fill-opacity="1.000000" fill-rule="nonzero"/>
				<path id="Path 6" d="M961.77 153.09L961.77 142.14L963.25 142.14L963.25 151.66L969.13 151.66L969.13 153.09L961.77 153.09Z" stroke="#707070" stroke-opacity="0" stroke-width="1.000000"/>
			</g>
			<g style="mix-blend-mode:normal">
				<path id="Path 7" d="M976.02 152.36C976.02 152.12 976.12 151.88 976.3 151.72C976.68 151.36 977.27 151.36 977.65 151.72C977.82 151.88 977.92 152.12 977.92 152.36C977.93 152.62 977.83 152.87 977.65 153.05C977.27 153.42 976.67 153.42 976.3 153.05C976.12 152.87 976.02 152.62 976.02 152.36Z" fill="#FFFFFF" fill-opacity="1.000000" fill-rule="nonzero"/>
				<path id="Path 7" d="M976.3 151.72C976.68 151.36 977.27 151.36 977.65 151.72C977.82 151.88 977.92 152.12 977.92 152.36C977.93 152.62 977.83 152.87 977.65 153.05C977.27 153.42 976.67 153.42 976.3 153.05C976.12 152.87 976.02 152.62 976.02 152.36C976.02 152.12 976.12 151.88 976.3 151.72Z" stroke="#707070" stroke-opacity="0" stroke-width="1.000000"/>
			</g>
			<g style="mix-blend-mode:normal">
				<path id="Path 8" d="M990.22 153.25C988.73 153.29 987.28 152.73 986.21 151.69C985.13 150.63 984.54 149.17 984.58 147.66C984.53 146.12 985.14 144.63 986.24 143.56C987.31 142.5 988.76 141.92 990.26 141.95C991.22 141.94 992.16 142.17 993.01 142.62C993.82 143.01 994.5 143.61 994.98 144.35L993.89 145.27C993.08 144.08 991.73 143.37 990.29 143.39C989.17 143.37 988.1 143.81 987.32 144.6C986.51 145.41 986.08 146.52 986.11 147.67C986.03 149.89 987.77 151.75 989.99 151.83C990.08 151.83 990.18 151.83 990.28 151.83C990.99 151.83 991.69 151.67 992.32 151.34C992.95 151.01 993.51 150.55 993.95 149.98L995.01 150.88C994.48 151.62 993.78 152.22 992.96 152.62C992.11 153.04 991.17 153.26 990.22 153.25Z" fill="#FFFFFF" fill-opacity="1.000000" fill-rule="nonzero"/>
				<path id="Path 8" d="M986.21 151.69C985.13 150.63 984.54 149.17 984.58 147.66C984.53 146.12 985.14 144.63 986.24 143.56C987.31 142.5 988.76 141.92 990.26 141.95C991.22 141.94 992.16 142.17 993.01 142.62C993.82 143.01 994.5 143.61 994.98 144.35L993.89 145.27C993.08 144.08 991.73 143.37 990.29 143.39C989.17 143.37 988.1 143.81 987.32 144.6C986.51 145.41 986.08 146.52 986.11 147.67C986.03 149.89 987.77 151.75 989.99 151.83C990.08 151.83 990.18 151.83 990.28 151.83C990.99 151.83 991.69 151.67 992.32 151.34C992.95 151.01 993.51 150.55 993.95 149.98L995.01 150.88C994.48 151.62 993.78 152.22 992.96 152.62C992.11 153.04 991.17 153.26 990.22 153.25C988.73 153.29 987.28 152.73 986.21 151.69Z" stroke="#707070" stroke-opacity="0" stroke-width="1.000000"/>
			</g>
			<g style="mix-blend-mode:normal">
				<path id="Path 9" d="M1001.88 147.68C1001.85 146.16 1002.45 144.69 1003.54 143.62C1005.75 141.42 1009.33 141.42 1011.54 143.62C1013.75 145.83 1013.75 149.41 1011.54 151.62C1010.47 152.7 1009.01 153.29 1007.49 153.27C1004.45 153.33 1001.94 150.91 1001.88 147.87C1001.88 147.81 1001.88 147.75 1001.88 147.68ZM1011.67 147.64C1011.7 146.51 1011.27 145.42 1010.47 144.62C1008.87 143 1006.26 142.99 1004.65 144.59C1003.06 146.27 1003.03 148.94 1004.62 150.62C1006.24 152.22 1008.85 152.22 1010.48 150.62C1011.27 149.83 1011.7 148.75 1011.67 147.64Z" fill="#FFFFFF" fill-opacity="1.000000" fill-rule="nonzero"/>
				<path id="Path 9" d="M1003.54 143.62C1005.75 141.42 1009.33 141.42 1011.54 143.62C1013.75 145.83 1013.75 149.41 1011.54 151.62C1010.47 152.7 1009.01 153.29 1007.49 153.27C1004.45 153.33 1001.94 150.91 1001.88 147.87C1001.88 147.81 1001.88 147.75 1001.88 147.68C1001.85 146.16 1002.45 144.69 1003.54 143.62ZM1010.47 144.62C1008.87 143 1006.26 142.99 1004.65 144.59C1003.06 146.27 1003.03 148.94 1004.62 150.62C1006.24 152.22 1008.85 152.22 1010.48 150.62C1011.27 149.83 1011.7 148.75 1011.67 147.64C1011.7 146.51 1011.27 145.42 1010.47 144.62Z" stroke="#707070" stroke-opacity="0" stroke-width="1.000000"/>
			</g>
			<g style="mix-blend-mode:normal">
				<path id="Path 10" d="M1022.66 153.09L1021.19 153.09L1021.19 142.14L1021.9 142.14L1026.63 149.09L1031.31 142.14L1032.05 142.14L1032.05 153.09L1030.56 153.09L1030.56 145.7L1026.8 151.22L1026.42 151.22L1022.66 145.7L1022.66 153.09Z" fill="#FFFFFF" fill-opacity="1.000000" fill-rule="nonzero"/>
				<path id="Path 10" d="M1021.19 153.09L1021.19 142.14L1021.9 142.14L1026.63 149.09L1031.31 142.14L1032.05 142.14L1032.05 153.09L1030.56 153.09L1030.56 145.7L1026.8 151.22L1026.42 151.22L1022.66 145.7L1022.66 153.09L1021.19 153.09Z" stroke="#707070" stroke-opacity="0" stroke-width="1.000000"/>
			</g>
			<g style="mix-blend-mode:normal">
				<path id="Path 11" d="M1003.71 101.02L1001.52 101.02C1001.27 101.03 1001.07 100.83 1001.06 100.58L1001.14 91.13C1001.14 91.13 1001.56 87.88 1001 82.52C1000.57 87.3 999.8 88.25 999.75 88.31C995.86 91.09 992.37 95.64 991.47 97.29C991.4 97.44 991.25 97.53 991.09 97.53L986.7 97.53C986.46 97.53 986.28 97.72 986.28 97.95L986.28 98.37C986.28 98.6 986.47 98.79 986.7 98.79L989.57 98.79C989.81 98.77 990.01 98.95 990.03 99.18C990.03 99.28 990.01 99.38 989.95 99.46C988.72 101.45 985.17 107.62 984.14 114.04C982.92 121.67 983.16 129.01 984.53 133.39C984.58 133.59 984.79 133.72 984.99 133.69L987.15 133.42C987.38 133.4 987.56 133.2 987.54 132.96C987.2 130.71 985.77 120.46 987.16 114.29C987.21 114.09 987.38 113.95 987.58 113.96L997.11 113.96C997.35 113.96 997.53 114.14 997.54 114.38C997.49 116.8 997.19 128.31 996.27 132.61C996.21 132.83 996.34 133.06 996.57 133.12C997.84 133.27 999.78 133.52 1000.66 133.65C1000.89 133.69 1001.11 133.53 1001.15 133.31L1001.16 103.44C1001.16 103.21 1001.35 103.02 1001.58 103.02L1003.67 103.02C1003.91 103.02 1004.09 102.83 1004.09 102.6L1004.09 101.46C1004.1 101.23 1003.94 101.03 1003.71 101.02ZM998.09 101.14C998.09 101.14 996.25 101.33 996.64 101.84C996.95 102.37 997.46 102.74 998.05 102.86C997.86 105.82 997.74 112.01 997.74 112.01L987.73 111.82C987.73 111.82 988.82 104.74 992.26 99.5C995.71 94.26 998.13 91.59 998.45 91.45C997.99 100.86 998.09 101.14 998.09 101.14Z" fill="#FFFFFF" fill-opacity="1.000000" fill-rule="nonzero"/>
				<path id="Path 11" d="M1001.52 101.02C1001.27 101.03 1001.07 100.83 1001.06 100.58L1001.14 91.13C1001.14 91.13 1001.56 87.88 1001 82.52C1000.57 87.3 999.8 88.25 999.75 88.31C995.86 91.09 992.37 95.64 991.47 97.29C991.4 97.44 991.25 97.53 991.09 97.53L986.7 97.53C986.46 97.53 986.28 97.72 986.28 97.95L986.28 98.37C986.28 98.6 986.47 98.79 986.7 98.79L989.57 98.79C989.81 98.77 990.01 98.95 990.03 99.18C990.03 99.28 990.01 99.38 989.95 99.46C988.72 101.45 985.17 107.62 984.14 114.04C982.92 121.67 983.16 129.01 984.53 133.39C984.58 133.59 984.79 133.72 984.99 133.69L987.15 133.42C987.38 133.4 987.56 133.2 987.54 132.96C987.2 130.71 985.77 120.46 987.16 114.29C987.21 114.09 987.38 113.95 987.58 113.96L997.11 113.96C997.35 113.96 997.53 114.14 997.54 114.38C997.49 116.8 997.19 128.31 996.27 132.61C996.21 132.83 996.34 133.06 996.57 133.12C997.84 133.27 999.78 133.52 1000.66 133.65C1000.89 133.69 1001.11 133.53 1001.15 133.31L1001.16 103.44C1001.16 103.21 1001.35 103.02 1001.58 103.02L1003.67 103.02C1003.91 103.02 1004.09 102.83 1004.09 102.6L1004.09 101.46C1004.1 101.23 1003.94 101.03 1003.71 101.02L1001.52 101.02ZM996.64 101.84C996.95 102.37 997.46 102.74 998.05 102.86C997.86 105.82 997.74 112.01 997.74 112.01L987.73 111.82C987.73 111.82 988.82 104.74 992.26 99.5C995.71 94.26 998.13 91.59 998.45 91.45C997.99 100.86 998.09 101.14 998.09 101.14C998.09 101.14 996.25 101.33 996.64 101.84Z" stroke="#707070" stroke-opacity="0" stroke-width="1.000000"/>
			</g>
			<g style="mix-blend-mode:normal">
				<path id="Path 12" d="M992.18 98.59L998.23 98.74L992.18 98.9L992.18 98.59Z" fill="#FFFFFF" fill-opacity="1.000000" fill-rule="nonzero"/>
				<path id="Path 12" d="M998.23 98.74L992.18 98.9L992.18 98.59L998.23 98.74Z" stroke="#707070" stroke-opacity="0" stroke-width="1.000000"/>
			</g>
			<g style="mix-blend-mode:normal">
				<path id="Path 13" d="M992.18 100.5L998.23 100.66L992.18 100.81L992.18 100.5Z" fill="#FFFFFF" fill-opacity="1.000000" fill-rule="nonzero"/>
				<path id="Path 13" d="M998.23 100.66L992.18 100.81L992.18 100.5L998.23 100.66Z" stroke="#707070" stroke-opacity="0" stroke-width="1.000000"/>
			</g>
			<g style="mix-blend-mode:normal">
				<path id="Path 14" d="M992.18 102.41L998.23 102.57L992.18 102.72L992.18 102.41Z" fill="#FFFFFF" fill-opacity="1.000000" fill-rule="nonzero"/>
				<path id="Path 14" d="M998.23 102.57L992.18 102.72L992.18 102.41L998.23 102.57Z" stroke="#707070" stroke-opacity="0" stroke-width="1.000000"/>
			</g>
			<g style="mix-blend-mode:normal">
				<path id="Path 15" d="M989.67 104.32L998.23 104.48L989.67 104.63L989.67 104.32Z" fill="#FFFFFF" fill-opacity="1.000000" fill-rule="nonzero"/>
				<path id="Path 15" d="M998.23 104.48L989.67 104.63L989.67 104.32L998.23 104.48Z" stroke="#707070" stroke-opacity="0" stroke-width="1.000000"/>
			</g>
			<g style="mix-blend-mode:normal">
				<path id="Path 16" d="M989.67 106.23L998.23 106.39L989.67 106.54L989.67 106.23Z" fill="#FFFFFF" fill-opacity="1.000000" fill-rule="nonzero"/>
				<path id="Path 16" d="M998.23 106.39L989.67 106.54L989.67 106.23L998.23 106.39Z" stroke="#707070" stroke-opacity="0" stroke-width="1.000000"/>
			</g>
			<g style="mix-blend-mode:normal">
				<path id="Path 17" d="M989.67 108.14L998.23 108.3L989.67 108.45L989.67 108.14Z" fill="#FFFFFF" fill-opacity="1.000000" fill-rule="nonzero"/>
				<path id="Path 17" d="M998.23 108.3L989.67 108.45L989.67 108.14L998.23 108.3Z" stroke="#707070" stroke-opacity="0" stroke-width="1.000000"/>
			</g>
			<g style="mix-blend-mode:normal">
				<path id="Path 18" d="M989.67 110.05L998.23 110.21L989.67 110.36L989.67 110.05Z" fill="#FFFFFF" fill-opacity="1.000000" fill-rule="nonzero"/>
				<path id="Path 18" d="M998.23 110.21L989.67 110.36L989.67 110.05L998.23 110.21Z" stroke="#707070" stroke-opacity="0" stroke-width="1.000000"/>
			</g>
			<g style="mix-blend-mode:normal">
				<path id="Path 19" d="M987.87 115.41L995.2 115.57L987.87 115.72L987.87 115.41Z" fill="#FFFFFF" fill-opacity="1.000000" fill-rule="nonzero"/>
				<path id="Path 19" d="M995.2 115.57L987.87 115.72L987.87 115.41L995.2 115.57Z" stroke="#707070" stroke-opacity="0" stroke-width="1.000000"/>
			</g>
			<g style="mix-blend-mode:normal">
				<path id="Path 20" d="M987.87 117.96L995.2 118.11L987.87 118.26L987.87 117.96Z" fill="#FFFFFF" fill-opacity="1.000000" fill-rule="nonzero"/>
				<path id="Path 20" d="M995.2 118.11L987.87 118.26L987.87 117.96L995.2 118.11Z" stroke="#707070" stroke-opacity="0" stroke-width="1.000000"/>
			</g>
			<g style="mix-blend-mode:normal">
				<path id="Path 21" d="M987.87 120.5L995.2 120.66L987.87 120.81L987.87 120.5Z" fill="#FFFFFF" fill-opacity="1.000000" fill-rule="nonzero"/>
				<path id="Path 21" d="M995.2 120.66L987.87 120.81L987.87 120.5L995.2 120.66Z" stroke="#707070" stroke-opacity="0" stroke-width="1.000000"/>
			</g>
			<g style="mix-blend-mode:normal">
				<path id="Path 22" d="M986.65 123.05L995.21 123.2L986.65 123.36L986.65 123.05Z" fill="#FFFFFF" fill-opacity="1.000000" fill-rule="nonzero"/>
				<path id="Path 22" d="M995.21 123.2L986.65 123.36L986.65 123.05L995.21 123.2Z" stroke="#707070" stroke-opacity="0" stroke-width="1.000000"/>
			</g>
			<g style="mix-blend-mode:normal">
				<path id="Path 23" d="M986.65 125.6L995.21 125.75L986.65 125.91L986.65 125.6Z" fill="#FFFFFF" fill-opacity="1.000000" fill-rule="nonzero"/>
				<path id="Path 23" d="M995.21 125.75L986.65 125.91L986.65 125.6L995.21 125.75Z" stroke="#707070" stroke-opacity="0" stroke-width="1.000000"/>
			</g>
			<g style="mix-blend-mode:normal">
				<path id="Path 24" d="M986.65 128.14L995.21 128.3L986.65 128.45L986.65 128.14Z" fill="#FFFFFF" fill-opacity="1.000000" fill-rule="nonzero"/>
				<path id="Path 24" d="M995.21 128.3L986.65 128.45L986.65 128.14L995.21 128.3Z" stroke="#707070" stroke-opacity="0" stroke-width="1.000000"/>
			</g>
			<g style="mix-blend-mode:normal">
				<path id="Path 25" d="M986.65 130.69L995.21 130.84L986.65 131L986.65 130.69Z" fill="#FFFFFF" fill-opacity="1.000000" fill-rule="nonzero"/>
				<path id="Path 25" d="M995.21 130.84L986.65 131L986.65 130.69L995.21 130.84Z" stroke="#707070" stroke-opacity="0" stroke-width="1.000000"/>
			</g>
			<g style="mix-blend-mode:normal">
				<path id="Path 26" d="M1006.42 133.73L1032.04 133.73L1032.04 131.44L1029.77 131.44L1029.77 129.85L1027.81 129.85L1027.03 117.07L1025.51 117.07L1024.96 106.04L1023.67 105.34L1023.32 94.33L1021.71 93.67L1021.48 82.37L1020.26 81.65L1020.03 76.03L1019.23 75.71L1019.23 71.8L1018.9 71.66L1018.94 68.76L1018.62 68.76L1018.39 64.96L1018.31 69.22L1017.92 69.28L1017.92 70.82L1017.53 70.88L1017.65 73.83L1017.14 74L1017.18 76.92L1016.78 77.02L1016.75 80.6L1016.28 81.04L1016.28 85.79L1015.22 86.29L1015.1 97.21L1013.77 97.49L1013.54 108.88L1012.25 108.88L1012.05 120.06L1010.45 120.09L1009.9 129.88L1008.3 129.85L1008.14 130.86L1006.42 131.03L1006.42 133.73Z" fill="#FFFFFF" fill-opacity="1.000000" fill-rule="nonzero"/>
				<path id="Path 26" d="M1032.04 133.73L1032.04 131.44L1029.77 131.44L1029.77 129.85L1027.81 129.85L1027.03 117.07L1025.51 117.07L1024.96 106.04L1023.67 105.34L1023.32 94.33L1021.71 93.67L1021.48 82.37L1020.26 81.65L1020.03 76.03L1019.23 75.71L1019.23 71.8L1018.9 71.66L1018.94 68.76L1018.62 68.76L1018.39 64.96L1018.31 69.22L1017.92 69.28L1017.92 70.82L1017.53 70.88L1017.65 73.83L1017.14 74L1017.18 76.92L1016.78 77.02L1016.75 80.6L1016.28 81.04L1016.28 85.79L1015.22 86.29L1015.1 97.21L1013.77 97.49L1013.54 108.88L1012.25 108.88L1012.05 120.06L1010.45 120.09L1009.9 129.88L1008.3 129.85L1008.14 130.86L1006.42 131.03L1006.42 133.73L1032.04 133.73Z" stroke="#707070" stroke-opacity="0" stroke-width="1.000000"/>
			</g>
			<g style="mix-blend-mode:normal">
				<path id="Path 27" d="M921.02 114.03C921.09 119.25 918.99 124.28 915.21 127.9C911.59 131.65 906.58 133.74 901.36 133.69L888 133.69L888 94.3L899.43 94.3C905.71 94.3 910.88 96.18 914.94 99.93C919 103.69 921.03 108.38 921.02 114.03ZM917.03 113.46C916.99 109.21 915.1 105.2 911.86 102.45C908.63 99.52 904.39 97.93 900.03 97.99L891.81 97.99L891.81 129.99L901.15 129.99C905.48 130.06 909.63 128.28 912.56 125.09C915.6 122.01 917.23 117.79 917.03 113.46Z" fill="#FFFFFF" fill-opacity="1.000000" fill-rule="nonzero"/>
				<path id="Path 27" d="M915.21 127.9C911.59 131.65 906.58 133.74 901.36 133.69L888 133.69L888 94.3L899.43 94.3C905.71 94.3 910.88 96.18 914.94 99.93C919 103.69 921.03 108.38 921.02 114.03C921.09 119.25 918.99 124.28 915.21 127.9ZM911.86 102.45C908.63 99.52 904.39 97.93 900.03 97.99L891.81 97.99L891.81 129.99L901.15 129.99C905.48 130.06 909.63 128.28 912.56 125.09C915.6 122.01 917.23 117.79 917.03 113.46C916.99 109.21 915.1 105.2 911.86 102.45Z" stroke="#707070" stroke-opacity="0" stroke-width="1.000000"/>
			</g>
			<g style="mix-blend-mode:normal">
				<path id="Path 28" d="M951.22 120.89C951.31 124.54 949.87 128.06 947.25 130.6C944.73 133.16 941.25 134.54 937.65 134.41C934.13 134.44 930.75 133.01 928.34 130.44C925.81 127.83 924.55 124.6 924.55 120.74L924.55 94.22L928.43 94.22L928.43 120.05C928.35 122.8 929.31 125.48 931.11 127.57C932.79 129.55 935.28 130.68 937.88 130.62C940.41 130.66 942.84 129.64 944.58 127.79C946.4 125.94 947.39 123.42 947.32 120.82L947.32 94.22L951.21 94.22L951.22 120.89Z" fill="#FFFFFF" fill-opacity="1.000000" fill-rule="nonzero"/>
				<path id="Path 28" d="M947.25 130.6C944.73 133.16 941.25 134.54 937.65 134.41C934.13 134.44 930.75 133.01 928.34 130.44C925.81 127.83 924.55 124.6 924.55 120.74L924.55 94.22L928.43 94.22L928.43 120.05C928.35 122.8 929.31 125.48 931.11 127.57C932.79 129.55 935.28 130.68 937.88 130.62C940.41 130.66 942.84 129.64 944.58 127.79C946.4 125.94 947.39 123.42 947.32 120.82L947.32 94.22L951.21 94.22L951.22 120.89C951.31 124.54 949.87 128.06 947.25 130.6Z" stroke="#707070" stroke-opacity="0" stroke-width="1.000000"/>
			</g>
			<g style="mix-blend-mode:normal">
				<path id="Path 29" d="M980.19 122.47C980.3 125.61 979.11 128.27 976.64 130.43C974.25 132.57 971.15 133.72 967.96 133.68L955.42 133.68L955.42 94.27L966.58 94.27C969.53 94.2 972.41 95.18 974.71 97.03C977.14 98.98 978.35 101.43 978.35 104.4C978.35 107.92 976.85 110.65 973.85 112.6C977.91 114.5 980.02 117.79 980.19 122.47ZM966.5 97.95L959.51 97.95L959.51 111.12L966.71 111.12C968.67 111.15 970.58 110.51 972.13 109.3C973.63 108.22 974.5 106.47 974.47 104.62C974.54 102.65 973.61 100.78 972 99.65C970.41 98.48 968.47 97.88 966.5 97.95ZM976.15 122.09C976.01 119.61 975.02 117.72 973.19 116.42C971.51 115.27 969.28 114.69 966.48 114.69L959.51 114.69L959.51 129.9L966.68 129.9C969.71 129.9 972.09 129.18 973.8 127.75C975.48 126.38 976.36 124.25 976.15 122.09Z" fill="#FFFFFF" fill-opacity="1.000000" fill-rule="nonzero"/>
				<path id="Path 29" d="M976.64 130.43C974.25 132.57 971.15 133.72 967.96 133.68L955.42 133.68L955.42 94.27L966.58 94.27C969.53 94.2 972.41 95.18 974.71 97.03C977.14 98.98 978.35 101.43 978.35 104.4C978.35 107.92 976.85 110.65 973.85 112.6C977.91 114.5 980.02 117.79 980.19 122.47C980.3 125.61 979.11 128.27 976.64 130.43ZM959.51 97.95L959.51 111.12L966.71 111.12C968.67 111.15 970.58 110.51 972.13 109.3C973.63 108.22 974.5 106.47 974.47 104.62C974.54 102.65 973.61 100.78 972 99.65C970.41 98.48 968.47 97.88 966.5 97.95L959.51 97.95ZM973.19 116.42C971.51 115.27 969.28 114.69 966.48 114.69L959.51 114.69L959.51 129.9L966.68 129.9C969.71 129.9 972.09 129.18 973.8 127.75C975.48 126.38 976.36 124.25 976.15 122.09C976.01 119.61 975.02 117.72 973.19 116.42Z" stroke="#707070" stroke-opacity="0" stroke-width="1.000000"/>
			</g>
			<g style="mix-blend-mode:normal">
				<path id="Hoşgeldiniz!" d="M996.04 301.84C996.04 303.19 994.85 304.29 993.41 304.29C991.97 304.29 990.79 303.19 990.79 301.84C990.79 300.5 991.97 299.39 993.41 299.39C994.85 299.39 996.04 300.5 996.04 301.84ZM1024.64 301.84C1024.64 303.19 1023.46 304.29 1022.02 304.29C1020.58 304.29 1019.4 303.19 1019.4 301.84C1019.4 300.5 1020.58 299.39 1022.02 299.39C1023.46 299.39 1024.64 300.5 1024.64 301.84ZM866.08 324L861.16 324L861.16 300.72L866.08 300.72L866.08 310.32L876.06 310.32L876.06 300.72L880.98 300.72L880.98 324L876.06 324L876.06 314.38L866.08 314.38L866.08 324ZM961.94 300.72L966.78 300.72L966.78 324L961.94 324L961.94 300.72ZM982.03 321.2C981.36 322.65 979.89 324.28 977.08 324.28C973.1 324.28 970 321.13 970 315.29C970 309.29 973.24 306.32 977.07 306.32C979.99 306.32 981.39 308.05 982.03 309.47L982.18 309.47L982.18 300.72L987.01 300.72L987.01 324L982.24 324L982.24 321.2L982.03 321.2ZM1047.31 300.72L1052.37 300.72L1051.92 317.02L1047.77 317.02L1047.31 300.72ZM901.42 315.34C901.42 320.71 898.13 324.34 892.83 324.34C887.53 324.34 884.24 320.71 884.24 315.34C884.24 309.93 887.53 306.32 892.83 306.32C898.13 306.32 901.42 309.93 901.42 315.34ZM911.67 306.32C916.08 306.32 918.67 308.3 919.1 311.52L914.67 311.79C914.43 310.67 913.43 309.75 911.75 309.75C910.25 309.75 909.07 310.43 909.08 311.47C909.07 312.32 909.67 312.87 911.29 313.22L914.45 313.86C917.84 314.55 919.49 316.07 919.5 318.59C919.49 321.75 916.76 323.95 912.83 324.29L912.72 324.89C914.27 325.13 915.37 326.07 915.39 327.65C915.4 329.92 913.19 331.36 909.39 331.36L909.34 329.2C911.25 329.2 912.4 328.75 912.43 327.78C912.47 326.85 911.74 326.4 910.15 326.21L910.58 324.29C906.64 323.97 904.22 322 903.8 318.94L908.57 318.69C908.86 320.11 910.01 320.85 911.74 320.85C913.43 320.85 914.55 320.11 914.58 319.07C914.55 318.2 913.86 317.64 912.34 317.34L909.32 316.74C905.9 316.05 904.26 314.36 904.27 311.75C904.26 308.38 907.2 306.32 911.67 306.32ZM938.95 324.17C938.95 328.63 935.4 330.9 930.42 330.9C925.72 330.9 923.02 328.79 922.44 326.04L926.92 325.44C927.32 326.5 928.4 327.43 930.53 327.43C932.63 327.43 934.17 326.5 934.17 324.1L934.17 320.9L933.97 320.9C933.33 322.35 931.77 323.75 928.99 323.75C925.05 323.75 921.9 321.04 921.9 315.24C921.9 309.29 925.15 306.32 928.97 306.32C931.9 306.32 933.32 308.05 933.97 309.47L934.15 309.47L934.15 306.54L938.95 306.54L938.95 324.17ZM958.68 319C958 322.24 955.09 324.34 950.77 324.34C945.39 324.34 942.11 320.88 942.11 315.35C942.11 309.96 945.44 306.32 950.58 306.32C955.19 306.32 958.78 309.25 958.78 315.18L958.78 316.5L946.89 316.5L946.89 316.52C946.89 319.12 948.43 320.72 950.85 320.72C952.46 320.72 953.71 320.03 954.2 318.7L958.68 319ZM1007.83 310.34C1005.88 310.34 1004.53 311.65 1004.53 313.9L1004.53 324L999.68 324L999.68 306.54L1004.3 306.54L1004.3 309.62L1004.5 309.62C1005.28 307.59 1007.16 306.32 1009.75 306.32C1013.39 306.32 1015.78 308.82 1015.78 312.88L1015.78 324L1010.93 324L1010.93 313.75C1010.95 311.61 1009.78 310.34 1007.83 310.34ZM995.82 324L990.97 324L990.97 306.54L995.82 306.54L995.82 324ZM1024.42 324L1019.58 324L1019.58 306.54L1024.42 306.54L1024.42 324ZM1042.86 324L1028.19 324L1028.19 321.11L1036.74 310.53L1036.74 310.4L1028.49 310.4L1028.49 306.54L1042.56 306.54L1042.56 309.69L1034.55 320L1034.55 320.13L1042.86 320.13L1042.86 324ZM950.66 309.93C948.51 309.93 947 311.52 946.89 313.5L954.23 313.5C954.21 311.43 952.76 309.93 950.66 309.93ZM889.16 315.3C889.16 318.35 890.41 320.59 892.85 320.59C895.25 320.59 896.5 318.35 896.5 315.3C896.5 312.25 895.25 310 892.85 310C890.41 310 889.16 312.25 889.16 315.3ZM926.85 315.21C926.85 318.22 928.15 320.11 930.52 320.11C932.85 320.11 934.19 318.29 934.19 315.21C934.19 312.15 932.87 310.17 930.52 310.17C928.12 310.17 926.85 312.25 926.85 315.21ZM974.94 315.27C974.94 318.32 976.24 320.43 978.61 320.43C980.94 320.43 982.28 318.38 982.28 315.27C982.28 312.15 980.96 310.17 978.61 310.17C976.21 310.17 974.94 312.25 974.94 315.27ZM1052.56 321.57C1052.56 323.07 1051.3 324.29 1049.85 324.29C1048.35 324.29 1047.1 323.07 1047.12 321.57C1047.1 320.07 1048.35 318.86 1049.85 318.86C1051.3 318.86 1052.56 320.07 1052.56 321.57Z" fill="#D71923" fill-opacity="1.000000" fill-rule="evenodd"/>
			</g>
			
			<g style="mix-blend-mode:normal">
				<path id="E-posta" d="M750.87 429L743.01 429L743.01 417.36L750.85 417.36L750.85 419.39L745.47 419.39L745.47 422.16L750.44 422.16L750.44 424.19L745.47 424.19L745.47 426.97L750.87 426.97L750.87 429ZM792.19 420.27L793.83 420.27L793.83 422.09L792.19 422.09L792.19 426.31C792.19 426.98 792.52 427.17 793.01 427.17C793.23 427.17 793.49 427.11 793.61 427.09L793.99 428.89C793.75 428.97 793.3 429.09 792.68 429.12C790.92 429.19 789.76 428.34 789.77 426.63L789.77 422.09L788.57 422.09L788.57 420.27L789.77 420.27L789.77 418.18L792.19 418.18L792.19 420.27ZM762.68 432.27L760.26 432.27L760.26 420.27L762.65 420.27L762.65 421.73L762.76 421.73C763.08 421.02 763.78 420.16 765.24 420.16C767.16 420.16 768.77 421.64 768.77 424.64C768.77 427.56 767.22 429.14 765.23 429.14C763.82 429.14 763.09 428.32 762.76 427.6L762.68 427.6L762.68 432.27ZM778.62 424.67C778.62 427.35 776.97 429.17 774.33 429.17C771.68 429.17 770.03 427.35 770.03 424.67C770.03 421.96 771.68 420.16 774.33 420.16C776.97 420.16 778.62 421.96 778.62 424.67ZM783.75 420.16C785.95 420.16 787.25 421.15 787.46 422.76L785.25 422.89C785.12 422.33 784.62 421.87 783.78 421.87C783.03 421.87 782.45 422.21 782.45 422.73C782.45 423.16 782.75 423.43 783.56 423.61L785.14 423.93C786.83 424.27 787.66 425.03 787.66 426.29C787.66 428.01 786.03 429.17 783.77 429.17C781.46 429.17 780.04 428.14 779.81 426.47L782.2 426.34C782.34 427.05 782.92 427.42 783.78 427.42C784.62 427.42 785.19 427.05 785.2 426.53C785.19 426.1 784.84 425.82 784.08 425.67L782.57 425.37C780.86 425.02 780.04 424.18 780.05 422.87C780.04 421.19 781.51 420.16 783.75 420.16ZM800.44 427.78C800.02 428.6 799.18 429.16 797.89 429.16C796.23 429.16 795 428.28 795 426.56C795 424.61 796.55 424.03 798.27 423.87C799.79 423.72 800.39 423.65 800.39 423.09L800.39 423.05C800.39 422.34 799.92 421.92 799.09 421.92C798.22 421.92 797.7 422.35 797.54 422.93L795.3 422.75C795.64 421.16 797.01 420.16 799.1 420.16C801.05 420.16 802.81 421.03 802.81 423.11L802.81 429L800.51 429L800.51 427.78L800.44 427.78ZM772.49 424.65C772.49 426.17 773.12 427.29 774.34 427.29C775.54 427.29 776.16 426.17 776.16 424.65C776.16 423.12 775.54 422 774.34 422C773.12 422 772.49 423.12 772.49 424.65ZM764.47 422.08C763.29 422.08 762.63 423.07 762.63 424.63C762.63 426.19 763.3 427.21 764.47 427.21C765.66 427.21 766.3 426.16 766.3 424.63C766.3 423.12 765.67 422.08 764.47 422.08ZM752.89 423.26L758.2 423.26L758.2 425.18L752.89 425.18L752.89 423.26ZM797.31 426.48C797.31 427.14 797.84 427.49 798.59 427.49C799.65 427.49 800.4 426.79 800.4 425.87L800.4 424.95C800.11 425.14 799.25 425.27 798.72 425.34C797.87 425.46 797.31 425.8 797.31 426.48Z" fill="#D71923" fill-opacity="1.000000" fill-rule="evenodd"/>
			</g>
			<mask id="mask1_184" mask-type="alpha" maskUnits="userSpaceOnUse" x="763.000000" y="454.000000" width="1.000000" height="1.000000">
				<g style="mix-blend-mode:normal">
					<path id="samedbayrak@dubaivizeal.com" d="M901.07 458.29C901.07 458.73 900.69 459.08 900.23 459.08C899.77 459.08 899.39 458.73 899.39 458.29C899.39 457.85 899.77 457.5 900.23 457.5C900.69 457.5 901.07 457.85 901.07 458.29ZM912.18 458.29C912.18 458.73 911.81 459.08 911.35 459.08C910.89 459.08 910.51 458.73 910.51 458.29C910.51 457.85 910.89 457.5 911.35 457.5C911.81 457.5 912.18 457.85 912.18 458.29ZM804.72 466.82C804.46 467.24 803.96 468.16 802.49 468.16C800.58 468.16 799.25 466.62 799.25 464.2C799.25 461.79 800.58 460.26 802.51 460.26C804 460.26 804.46 461.17 804.72 461.57L804.82 461.57L804.82 457.81L805.99 457.81L805.99 468L804.86 468L804.86 466.82L804.72 466.82ZM809.59 468L808.46 468L808.46 457.81L809.63 457.81L809.63 461.57L809.73 461.57C809.99 461.17 810.45 460.26 811.94 460.26C813.86 460.26 815.2 461.79 815.2 464.2C815.2 466.62 813.86 468.16 811.96 468.16C810.48 468.16 809.99 467.24 809.73 466.82L809.59 466.82L809.59 468ZM846.68 468L845.5 468L845.5 457.81L846.68 457.81L846.68 463.76L846.82 463.76L850.16 460.36L851.61 460.36L848.38 463.62L851.85 468L850.36 468L847.5 464.38L846.68 465.14L846.68 468ZM871.33 466.82C871.08 467.24 870.58 468.16 869.11 468.16C867.2 468.16 865.87 466.62 865.87 464.2C865.87 461.79 867.2 460.26 869.13 460.26C870.62 460.26 871.08 461.17 871.33 461.57L871.44 461.57L871.44 457.81L872.61 457.81L872.61 468L871.47 468L871.47 466.82L871.33 466.82ZM884.34 468L883.21 468L883.21 457.81L884.38 457.81L884.38 461.57L884.48 461.57C884.74 461.17 885.2 460.26 886.69 460.26C888.62 460.26 889.95 461.79 889.95 464.2C889.95 466.62 888.62 468.16 886.71 468.16C885.24 468.16 884.74 467.24 884.48 466.82L884.34 466.82L884.34 468ZM937.48 457.81L938.65 457.81L938.65 468L937.48 468L937.48 457.81ZM861.91 470.12C861.29 470.38 860 470.68 858.99 470.68C854.93 470.68 852.72 468.41 852.72 464.4C852.72 460.52 855.01 458.19 858.85 458.19C862.57 458.19 864.47 460.88 864.47 463.6C864.47 465.53 864.28 467.8 862.17 467.8C861.47 467.8 860.4 467.5 860.28 466.64L860.22 466.64C859.98 467.22 859.39 467.78 858.25 467.74C856.52 467.68 855.63 466.22 855.63 464.33C855.63 462.55 856.76 461.31 858.25 461.16C859.24 461.05 860.02 461.43 860.16 461.87L860.22 461.87L860.22 461.31L861.28 461.31L861.28 465.81C861.28 466.37 861.59 466.86 862.19 466.86C863.2 466.86 863.44 465.85 863.44 463.58C863.44 461.35 861.95 459.13 858.79 459.13C855.67 459.13 853.82 461.12 853.82 464.44C853.82 467.82 855.63 469.72 859.03 469.72C860.12 469.72 861.28 469.33 861.63 469.21L861.91 470.12ZM833.57 468L832.4 468L832.4 460.36L833.53 460.36L833.53 461.51L833.61 461.51C833.89 460.76 834.68 460.24 835.6 460.24C835.78 460.24 836.08 460.25 836.22 460.26L836.22 461.45C836.14 461.43 835.81 461.37 835.5 461.37C834.39 461.37 833.57 462.13 833.57 463.16L833.57 468ZM766.77 460.26C768.29 460.26 769.11 460.99 769.48 462.07L768.42 462.37C768.22 461.84 767.8 461.27 766.77 461.27C765.84 461.27 765.14 461.75 765.14 462.41C765.14 463 765.55 463.3 766.45 463.52L767.59 463.8C768.95 464.13 769.62 464.8 769.62 465.87C769.62 467.19 768.41 468.16 766.64 468.16C765.07 468.16 764 467.46 763.73 466.17L764.84 465.89C765.05 466.71 765.65 467.12 766.62 467.12C767.71 467.12 768.41 466.58 768.41 465.93C768.41 465.4 768.04 465.03 767.27 464.85L766 464.55C764.6 464.23 763.97 463.52 763.97 462.47C763.97 461.17 765.16 460.26 766.77 460.26ZM775.9 466.96C775.66 467.46 774.97 468.17 773.64 468.17C772.18 468.17 771.03 467.32 771.03 465.83C771.03 464.08 772.58 463.76 773.99 463.58C775.39 463.4 775.96 463.45 775.96 462.89L775.96 462.84C775.96 461.87 775.43 461.29 774.35 461.29C773.23 461.29 772.62 461.89 772.36 462.45L771.25 462.05C771.84 460.66 773.16 460.26 774.31 460.26C775.29 460.26 777.14 460.54 777.14 462.96L777.14 468L775.96 468L775.96 466.96L775.9 466.96ZM780.45 468L779.28 468L779.28 460.36L780.42 460.36L780.42 461.55L780.52 461.55C780.83 460.74 781.57 460.26 782.56 460.26C783.57 460.26 784.23 460.74 784.61 461.55L784.69 461.55C785.09 460.76 785.89 460.26 786.98 460.26C788.34 460.26 789.31 461.09 789.31 462.89L789.31 468L788.13 468L788.13 462.89C788.13 461.76 787.42 461.31 786.58 461.31C785.51 461.31 784.89 462.04 784.89 463.02L784.89 468L783.7 468L783.7 462.77C783.7 461.89 783.08 461.31 782.19 461.31C781.27 461.31 780.45 462.1 780.45 463.22L780.45 468ZM797.7 466.22C797.34 467.38 796.21 468.16 794.65 468.16C792.45 468.16 791.09 466.58 791.09 464.24C791.09 461.89 792.47 460.26 794.54 460.26C796.12 460.26 797.82 461.23 797.82 464.08L797.82 464.57L792.27 464.57C792.33 466.21 793.28 467.1 794.65 467.1C795.57 467.1 796.26 466.7 796.56 465.91L797.7 466.22ZM821.5 466.96C821.26 467.46 820.56 468.17 819.24 468.17C817.78 468.17 816.63 467.32 816.63 465.83C816.63 464.08 818.18 463.76 819.59 463.58C820.99 463.4 821.56 463.45 821.56 462.89L821.56 462.84C821.56 461.87 821.03 461.29 819.95 461.29C818.83 461.29 818.22 461.89 817.96 462.45L816.85 462.05C817.44 460.66 818.76 460.26 819.91 460.26C820.89 460.26 822.74 460.54 822.74 462.96L822.74 468L821.56 468L821.56 466.96L821.5 466.96ZM842.12 466.96C841.88 467.46 841.19 468.17 839.86 468.17C838.4 468.17 837.25 467.32 837.25 465.83C837.25 464.08 838.8 463.76 840.21 463.58C841.61 463.4 842.18 463.45 842.18 462.89L842.18 462.84C842.18 461.87 841.65 461.29 840.57 461.29C839.45 461.29 838.84 461.89 838.58 462.45L837.47 462.05C838.07 460.66 839.38 460.26 840.53 460.26C841.51 460.26 843.36 460.54 843.36 462.96L843.36 468L842.18 468L842.18 466.96L842.12 466.96ZM896.25 466.96C896.02 467.46 895.32 468.17 893.99 468.17C892.54 468.17 891.38 467.32 891.38 465.83C891.38 464.08 892.93 463.76 894.34 463.58C895.74 463.4 896.31 463.45 896.31 462.89L896.31 462.84C896.31 461.87 895.78 461.29 894.7 461.29C893.58 461.29 892.97 461.89 892.71 462.45L891.6 462.05C892.2 460.66 893.51 460.26 894.66 460.26C895.64 460.26 897.49 460.54 897.49 462.96L897.49 468L896.31 468L896.31 466.96L896.25 466.96ZM927.67 466.22C927.32 467.38 926.18 468.16 924.63 468.16C922.42 468.16 921.07 466.58 921.07 464.24C921.07 461.89 922.44 460.26 924.51 460.26C926.1 460.26 927.79 461.23 927.79 464.08L927.79 464.57L922.25 464.57C922.3 466.21 923.25 467.1 924.63 467.1C925.55 467.1 926.24 466.7 926.54 465.91L927.67 466.22ZM934.1 466.96C933.86 467.46 933.16 468.17 931.83 468.17C930.38 468.17 929.22 467.32 929.22 465.83C929.22 464.08 930.77 463.76 932.19 463.58C933.58 463.4 934.16 463.45 934.16 462.89L934.16 462.84C934.16 461.87 933.63 461.29 932.55 461.29C931.43 461.29 930.82 461.89 930.56 462.45L929.44 462.05C930.04 460.66 931.35 460.26 932.51 460.26C933.48 460.26 935.33 460.54 935.33 462.96L935.33 468L934.16 468L934.16 466.96L934.1 466.96ZM950.76 465.77C950.56 467.12 949.45 468.16 947.76 468.16C945.61 468.16 944.3 466.51 944.3 464.22C944.3 461.89 945.67 460.26 947.74 460.26C949.35 460.26 950.56 461.21 950.76 462.65L949.59 462.65C949.41 461.95 948.79 461.31 947.76 461.31C946.39 461.31 945.47 462.45 945.47 464.18C945.47 465.95 946.37 467.1 947.76 467.1C948.67 467.1 949.37 466.6 949.59 465.77L950.76 465.77ZM959.03 464.22C959.03 466.58 957.64 468.16 955.58 468.16C953.51 468.16 952.11 466.58 952.11 464.22C952.11 461.83 953.51 460.26 955.58 460.26C957.64 460.26 959.03 461.83 959.03 464.22ZM962 468L960.82 468L960.82 460.36L961.96 460.36L961.96 461.55L962.06 461.55C962.38 460.74 963.11 460.26 964.11 460.26C965.11 460.26 965.78 460.74 966.15 461.55L966.24 461.55C966.63 460.76 967.43 460.26 968.52 460.26C969.88 460.26 970.85 461.09 970.85 462.89L970.85 468L969.67 468L969.67 462.89C969.67 461.76 968.96 461.31 968.12 461.31C967.05 461.31 966.43 462.04 966.43 463.02L966.43 468L965.24 468L965.24 462.77C965.24 461.89 964.62 461.31 963.73 461.31C962.81 461.31 962 462.1 962 463.22L962 468ZM827.61 469.11C827.16 470.3 826.42 470.86 825.36 470.86C824.96 470.86 824.62 470.78 824.5 470.72L824.8 469.69C825.66 469.91 826.19 469.8 826.61 468.63L826.83 468.04L824.01 460.36L825.28 460.36L827.39 466.44L827.47 466.44L829.58 460.36L830.85 460.36L827.61 469.11ZM877.76 466.96C878.63 466.96 879.73 466.3 879.73 464.87L879.73 460.36L880.9 460.36L880.9 468L879.73 468L879.73 466.7L879.65 466.7C879.29 467.48 878.53 468.09 877.38 468.09C875.95 468.09 874.92 467.16 874.92 465.21L874.92 460.36L876.09 460.36L876.09 465.13C876.09 466.25 876.78 466.96 877.76 466.96ZM900.81 468L899.63 468L899.63 460.36L900.81 460.36L900.81 468ZM907.93 460.36L909.2 460.36L906.38 468L905.18 468L902.36 460.36L903.63 460.36L905.74 466.44L905.82 466.44L907.93 460.36ZM911.92 468L910.75 468L910.75 460.36L911.92 460.36L911.92 468ZM919.84 468L913.85 468L913.85 467.1L918.19 461.53L918.19 461.45L913.99 461.45L913.99 460.36L919.7 460.36L919.7 461.29L915.48 466.82L915.48 466.9L919.84 466.9L919.84 468ZM794.54 461.31C793.19 461.31 792.35 462.37 792.27 463.56L796.62 463.56C796.62 462.27 795.81 461.31 794.54 461.31ZM800.42 464.18C800.42 465.81 801.18 467.1 802.65 467.1C804.06 467.1 804.84 465.91 804.84 464.18C804.84 462.47 804.08 461.31 802.65 461.31C801.16 461.31 800.42 462.57 800.42 464.18ZM811.8 461.31C810.36 461.31 809.61 462.47 809.61 464.18C809.61 465.91 810.38 467.1 811.8 467.1C813.27 467.1 814.02 465.81 814.02 464.18C814.02 462.57 813.29 461.31 811.8 461.31ZM867.04 464.18C867.04 465.81 867.8 467.1 869.27 467.1C870.68 467.1 871.45 465.91 871.45 464.18C871.45 462.47 870.7 461.31 869.27 461.31C867.78 461.31 867.04 462.57 867.04 464.18ZM886.55 461.31C885.12 461.31 884.36 462.47 884.36 464.18C884.36 465.91 885.14 467.1 886.55 467.1C888.02 467.1 888.78 465.81 888.78 464.18C888.78 462.57 888.04 461.31 886.55 461.31ZM924.51 461.31C923.17 461.31 922.33 462.37 922.25 463.56L926.6 463.56C926.6 462.27 925.78 461.31 924.51 461.31ZM953.29 464.22C953.29 465.75 954 467.1 955.58 467.1C957.14 467.1 957.86 465.75 957.86 464.22C957.86 462.69 957.14 461.31 955.58 461.31C954 461.31 953.29 462.69 953.29 464.22ZM856.66 464.28C856.66 465.55 857.12 466.72 858.41 466.72C859.74 466.72 860.28 465.93 860.28 464.28C860.28 462.61 859.64 462.13 858.45 462.13C857.32 462.13 856.66 463.12 856.66 464.28ZM772.2 465.89C772.2 466.7 772.88 467.12 773.81 467.12C775.2 467.12 775.96 466.19 775.96 465.23L775.96 464.16C775.76 464.4 774.43 464.54 773.93 464.59C773.02 464.71 772.2 464.99 772.2 465.89ZM817.8 465.89C817.8 466.7 818.48 467.12 819.41 467.12C820.8 467.12 821.56 466.19 821.56 465.23L821.56 464.16C821.36 464.4 820.03 464.54 819.53 464.59C818.62 464.71 817.8 464.99 817.8 465.89ZM838.43 465.89C838.43 466.7 839.1 467.12 840.04 467.12C841.43 467.12 842.18 466.19 842.18 465.23L842.18 464.16C841.98 464.4 840.65 464.54 840.15 464.59C839.24 464.71 838.43 464.99 838.43 465.89ZM892.56 465.89C892.56 466.7 893.23 467.12 894.17 467.12C895.56 467.12 896.31 466.19 896.31 465.23L896.31 464.16C896.11 464.4 894.78 464.54 894.29 464.59C893.37 464.71 892.56 464.99 892.56 465.89ZM930.4 465.89C930.4 466.7 931.08 467.12 932.01 467.12C933.4 467.12 934.16 466.19 934.16 465.23L934.16 464.16C933.96 464.4 932.62 464.54 932.13 464.59C931.21 464.71 930.4 464.99 930.4 465.89ZM942.55 467.18C942.55 467.67 942.15 468.07 941.65 468.07C941.16 468.07 940.76 467.67 940.76 467.18C940.76 466.69 941.16 466.29 941.65 466.29C942.15 466.29 942.55 466.69 942.55 467.18Z" fill="#808080" fill-opacity="1.000000" fill-rule="evenodd"/>
				</g>
			</mask>
		</g>
	</g>
</svg>
