<svg width="190" height="38" viewBox="0 0 190 38" fill="none" xmlns="http://www.w3.org/2000/svg">
  <path d="M15.6667 0.5H3.16667C1.42003 0.5 0 1.92003 0 3.66667V27.8333C0 29.58 1.42003 31 3.16667 31H15.6667C17.4133 31 18.8333 29.58 18.8333 27.8333V3.66667C18.8333 1.92003 17.4133 0.5 15.6667 0.5ZM15.6667 27.8333H3.16667V3.66667H15.6667V27.8333Z" fill="#D71923"/>
  <path d="M47.1667 0.5H34.6667C32.92 0.5 31.5 1.92003 31.5 3.66667V27.8333C31.5 29.58 32.92 31 34.6667 31H47.1667C48.9133 31 50.3333 29.58 50.3333 27.8333V16.9167H44V20.0833H47.1667V27.8333H34.6667V3.66667H47.1667V11.4167H44V14.5833H50.3333V3.66667C50.3333 1.92003 48.9133 0.5 47.1667 0.5Z" fill="#D71923"/>
  <path d="M82 0.5H69.5C67.7534 0.5 66.3334 1.92003 66.3334 3.66667V27.8333C66.3334 29.58 67.7534 31 69.5 31H82C83.7467 31 85.1667 29.58 85.1667 27.8333V3.66667C85.1667 1.92003 83.7467 0.5 82 0.5ZM82 27.8333H69.5V3.66667H82V27.8333Z" fill="#D71923"/>
  <path d="M113.5 0.5H100.833C99.087 0.5 97.667 1.92003 97.667 3.66667V31H100.833V17.75H113.5C115.247 17.75 116.667 16.33 116.667 14.5833V3.66667C116.667 1.92003 115.247 0.5 113.5 0.5ZM113.5 14.5833H100.833V3.66667H113.5V14.5833Z" fill="#D71923"/>
  <path d="M128.75 0.5V31H131.917V0.5H128.75Z" fill="#D71923"/>
  <path d="M148.75 0.5V31H151.917V0.5H148.75Z" fill="#D71923"/>
  <path d="M169.583 8C169.583 4.051 166.366 0.833336 162.417 0.833336C158.467 0.833336 155.25 4.051 155.25 8V23.5C155.25 27.449 158.467 30.6667 162.417 30.6667C166.366 30.6667 169.583 27.449 169.583 23.5V8ZM162.417 27.5C160.215 27.5 158.417 25.702 158.417 23.5V8C158.417 5.79837 160.215 4 162.417 4C164.618 4 166.417 5.79837 166.417 8V23.5C166.417 25.702 164.618 27.5 162.417 27.5Z" fill="#D71923"/>
  <path d="M183.958 0.5L176.208 15.75V31H179.375V15.75L187.125 0.5H183.958Z" fill="#D71923"/>
  <path d="M0 36.5833V37.5H18.8333V36.5833H0Z" fill="#D71923"/>
  <path d="M31.5 36.5833V37.5H50.3333V36.5833H31.5Z" fill="#D71923"/>
  <path d="M66.3334 36.5833V37.5H85.1667V36.5833H66.3334Z" fill="#D71923"/>
  <path d="M97.667 36.5833V37.5H116.667V36.5833H97.667Z" fill="#D71923"/>
  <path d="M128.75 36.5833V37.5H132.083V36.5833H128.75Z" fill="#D71923"/>
  <path d="M148.75 36.5833V37.5H152.083V36.5833H148.75Z" fill="#D71923"/>
  <path d="M155.25 36.5833V37.5H169.583V36.5833H155.25Z" fill="#D71923"/>
  <path d="M176.208 36.5833V37.5H187.125V36.5833H176.208Z" fill="#D71923"/>
</svg> 