<svg width="1920.000000" height="1080.000000" viewBox="0 0 1920 1080" fill="none" xmlns="http://www.w3.org/2000/svg" xmlns:xlink="http://www.w3.org/1999/xlink">
	<desc>
			Created with Pixso.
	</desc>
	<defs>
		<clipPath id="clip1_193">
			<rect id="kayıt ol" width="1920.000000" height="1080.000000" fill="white" fill-opacity="0"/>
		</clipPath>
	</defs>
	<g style="mix-blend-mode:normal">
		<rect id="kayıt ol" width="1920.000000" height="1080.000000" fill="#FFFFFF" fill-opacity="1.000000"/>
		<g clip-path="url(#clip1_193)">
			<g style="mix-blend-mode:normal">
				<rect id="Rectangle 47" x="1277.000000" width="643.000000" height="1088.000000" fill="#D71923" fill-opacity="1.000000"/>
				<rect id="Rectangle 47" x="1277.500000" y="0.500000" width="642.000000" height="1087.000000" stroke="#707070" stroke-opacity="0" stroke-width="1.000000"/>
			</g>
			<g style="mix-blend-mode:normal">
				<path id="Path 1" d="M357.83 510.61L361.06 502.73L362.58 502.73L358.21 513L357.42 513L353 502.73L354.58 502.73L357.83 510.61Z" fill="#D71923" fill-opacity="1.000000" fill-rule="nonzero"/>
				<path id="Path 1" d="M361.06 502.73L362.58 502.73L358.21 513L357.42 513L353 502.73L354.58 502.73L357.83 510.61L361.06 502.73Z" stroke="#707070" stroke-opacity="0" stroke-width="1.000000"/>
			</g>
			<g style="mix-blend-mode:normal">
				<path id="Path 2" d="M370.37 501.93C370.11 501.94 369.86 501.84 369.67 501.66C369.48 501.48 369.39 501.23 369.39 500.97C369.39 500.72 369.49 500.48 369.67 500.3C369.86 500.13 370.11 500.03 370.37 500.04C370.62 500.04 370.86 500.13 371.03 500.31C371.21 500.48 371.31 500.72 371.31 500.97C371.32 501.49 370.88 501.92 370.37 501.93ZM369.66 513L369.66 502.73L371.05 502.73L371.05 513L369.66 513Z" fill="#D71923" fill-opacity="1.000000" fill-rule="nonzero"/>
				<path id="Path 2" d="M369.67 501.66C369.48 501.48 369.39 501.23 369.39 500.97C369.39 500.72 369.49 500.48 369.67 500.3C369.86 500.13 370.11 500.03 370.37 500.04C370.62 500.04 370.86 500.13 371.03 500.31C371.21 500.48 371.31 500.72 371.31 500.97C371.32 501.49 370.88 501.92 370.37 501.93C370.11 501.94 369.86 501.84 369.67 501.66ZM369.66 502.73L371.05 502.73L371.05 513L369.66 513L369.66 502.73Z" stroke="#707070" stroke-opacity="0" stroke-width="1.000000"/>
			</g>
			<g style="mix-blend-mode:normal">
				<path id="Path 3" d="M385.9 513L378.22 513L378.22 512.15L383.8 504.06L378.47 504.06L378.47 502.75L385.75 502.75L385.75 503.63L380.22 511.69L385.9 511.69L385.9 513Z" fill="#D71923" fill-opacity="1.000000" fill-rule="nonzero"/>
				<path id="Path 3" d="M378.22 513L378.22 512.15L383.8 504.06L378.47 504.06L378.47 502.75L385.75 502.75L385.75 503.63L380.22 511.69L385.9 511.69L385.9 513L378.22 513Z" stroke="#707070" stroke-opacity="0" stroke-width="1.000000"/>
			</g>
			<g style="mix-blend-mode:normal">
				<path id="Path 4" d="M399.6 513L393.22 513L393.22 502.73L399.6 502.73L399.6 504.06L394.61 504.06L394.61 507.12L399.23 507.12L399.23 508.44L394.61 508.44L394.61 511.68L399.6 511.68L399.6 513Z" fill="#D71923" fill-opacity="1.000000" fill-rule="nonzero"/>
				<path id="Path 4" d="M393.22 513L393.22 502.73L399.6 502.73L399.6 504.06L394.61 504.06L394.61 507.12L399.23 507.12L399.23 508.44L394.61 508.44L394.61 511.68L399.6 511.68L399.6 513L393.22 513Z" stroke="#707070" stroke-opacity="0" stroke-width="1.000000"/>
			</g>
			<g style="mix-blend-mode:normal">
				<path id="Path 5" d="M415.11 513L413.6 513L412.56 510.33L408.66 510.33L407.62 513L406.1 513L410.25 502.73L411 502.73L415.11 513ZM412.09 509.03L410.61 505.16L409.13 509.03L412.09 509.03Z" fill="#D71923" fill-opacity="1.000000" fill-rule="nonzero"/>
				<path id="Path 5" d="M413.6 513L412.56 510.33L408.66 510.33L407.62 513L406.1 513L410.25 502.73L411 502.73L415.11 513L413.6 513ZM410.61 505.16L409.13 509.03L412.09 509.03L410.61 505.16Z" stroke="#707070" stroke-opacity="0" stroke-width="1.000000"/>
			</g>
			<g style="mix-blend-mode:normal">
				<path id="Path 6" d="M429.04 513L422.14 513L422.14 502.73L423.52 502.73L423.52 511.65L429.04 511.65L429.04 513Z" fill="#D71923" fill-opacity="1.000000" fill-rule="nonzero"/>
				<path id="Path 6" d="M422.14 513L422.14 502.73L423.52 502.73L423.52 511.65L429.04 511.65L429.04 513L422.14 513Z" stroke="#707070" stroke-opacity="0" stroke-width="1.000000"/>
			</g>
			<g style="mix-blend-mode:normal">
				<path id="Path 7" d="M435.49 512.31C435.49 512.08 435.58 511.86 435.75 511.71C436.11 511.37 436.66 511.37 437.01 511.71C437.18 511.86 437.27 512.08 437.27 512.31C437.28 512.56 437.19 512.79 437.01 512.96C436.66 513.3 436.1 513.3 435.75 512.96C435.58 512.79 435.49 512.56 435.49 512.31Z" fill="#D71923" fill-opacity="1.000000" fill-rule="nonzero"/>
				<path id="Path 7" d="M435.75 511.71C436.11 511.37 436.66 511.37 437.01 511.71C437.18 511.86 437.27 512.08 437.27 512.31C437.28 512.56 437.19 512.79 437.01 512.96C436.66 513.3 436.1 513.3 435.75 512.96C435.58 512.79 435.49 512.56 435.49 512.31C435.49 512.08 435.58 511.86 435.75 511.71Z" stroke="#707070" stroke-opacity="0" stroke-width="1.000000"/>
			</g>
			<g style="mix-blend-mode:normal">
				<path id="Path 8" d="M448.8 513.15C447.4 513.18 446.05 512.65 445.04 511.68C444.03 510.69 443.47 509.32 443.52 507.9C443.47 506.46 444.04 505.07 445.07 504.07C446.07 503.07 447.43 502.53 448.83 502.56C449.73 502.54 450.62 502.76 451.42 503.18C452.17 503.55 452.8 504.11 453.26 504.81L452.23 505.67C451.48 504.55 450.21 503.88 448.86 503.9C447.82 503.88 446.81 504.29 446.08 505.04C445.32 505.8 444.91 506.84 444.95 507.91C444.87 509.99 446.5 511.74 448.58 511.81C448.67 511.81 448.76 511.81 448.85 511.81C449.52 511.82 450.17 511.66 450.76 511.36C451.36 511.05 451.88 510.61 452.29 510.08L453.29 510.93C452.79 511.62 452.13 512.17 451.37 512.55C450.57 512.95 449.69 513.15 448.8 513.15Z" fill="#D71923" fill-opacity="1.000000" fill-rule="nonzero"/>
				<path id="Path 8" d="M445.04 511.68C444.03 510.69 443.47 509.32 443.52 507.9C443.47 506.46 444.04 505.07 445.07 504.07C446.07 503.07 447.43 502.53 448.83 502.56C449.73 502.54 450.62 502.76 451.42 503.18C452.17 503.55 452.8 504.11 453.26 504.81L452.23 505.67C451.48 504.55 450.21 503.88 448.86 503.9C447.82 503.88 446.81 504.29 446.08 505.04C445.32 505.8 444.91 506.84 444.95 507.91C444.87 509.99 446.5 511.74 448.58 511.81C448.67 511.81 448.76 511.81 448.85 511.81C449.52 511.82 450.17 511.66 450.76 511.36C451.36 511.05 451.88 510.61 452.29 510.08L453.29 510.93C452.79 511.62 452.13 512.17 451.37 512.55C450.57 512.95 449.69 513.15 448.8 513.15C447.4 513.18 446.05 512.65 445.04 511.68Z" stroke="#707070" stroke-opacity="0" stroke-width="1.000000"/>
			</g>
			<g style="mix-blend-mode:normal">
				<path id="Path 9" d="M459.72 507.93C459.69 506.5 460.26 505.12 461.28 504.12C463.35 502.05 466.7 502.05 468.77 504.12C470.84 506.19 470.84 509.55 468.77 511.62C467.77 512.63 466.4 513.18 464.98 513.16C462.13 513.22 459.78 510.95 459.72 508.1C459.72 508.04 459.72 507.99 459.72 507.93ZM468.9 507.89C468.93 506.83 468.52 505.81 467.77 505.06C466.27 503.54 463.83 503.53 462.32 505.03C460.83 506.6 460.8 509.1 462.29 510.68C463.81 512.18 466.26 512.18 467.78 510.68C468.52 509.94 468.93 508.93 468.9 507.89Z" fill="#D71923" fill-opacity="1.000000" fill-rule="nonzero"/>
				<path id="Path 9" d="M461.28 504.12C463.35 502.05 466.7 502.05 468.77 504.12C470.84 506.19 470.84 509.55 468.77 511.62C467.77 512.63 466.4 513.18 464.98 513.16C462.13 513.22 459.78 510.95 459.72 508.1C459.72 508.04 459.72 507.99 459.72 507.93C459.69 506.5 460.26 505.12 461.28 504.12ZM467.77 505.06C466.27 503.54 463.83 503.53 462.32 505.03C460.83 506.6 460.8 509.1 462.29 510.68C463.81 512.18 466.26 512.18 467.78 510.68C468.52 509.94 468.93 508.93 468.9 507.89C468.93 506.83 468.52 505.81 467.77 505.06Z" stroke="#707070" stroke-opacity="0" stroke-width="1.000000"/>
			</g>
			<g style="mix-blend-mode:normal">
				<path id="Path 10" d="M479.19 513L477.82 513L477.82 502.73L478.48 502.73L482.91 509.25L487.31 502.73L488 502.73L488 513L486.61 513L486.61 506.07L483.08 511.25L482.72 511.25L479.2 506.07L479.19 513Z" fill="#D71923" fill-opacity="1.000000" fill-rule="nonzero"/>
				<path id="Path 10" d="M477.82 513L477.82 502.73L478.48 502.73L482.91 509.25L487.31 502.73L488 502.73L488 513L486.61 513L486.61 506.07L483.08 511.25L482.72 511.25L479.2 506.07L479.19 513L477.82 513Z" stroke="#707070" stroke-opacity="0" stroke-width="1.000000"/>
			</g>
			<g style="mix-blend-mode:normal">
				<path id="Path 11" d="M461.43 464.2L459.38 464.2C459.15 464.2 458.96 464.01 458.95 463.78L459.03 454.92C459.03 454.92 459.42 451.88 458.89 446.86C458.5 451.34 457.77 452.23 457.73 452.28C454.09 454.89 450.81 459.16 449.97 460.7C449.9 460.84 449.76 460.92 449.61 460.92L445.5 460.92C445.28 460.92 445.1 461.1 445.1 461.32L445.1 461.71C445.1 461.93 445.28 462.11 445.5 462.11L448.19 462.11C448.41 462.09 448.6 462.25 448.62 462.47C448.62 462.57 448.6 462.66 448.54 462.73C447.39 464.6 444.07 470.38 443.1 476.4C441.96 483.54 442.18 490.43 443.46 494.53C443.52 494.72 443.71 494.84 443.9 494.81L445.92 494.56C446.14 494.54 446.31 494.35 446.29 494.13C445.96 492.02 444.63 482.41 445.93 476.63C445.97 476.44 446.14 476.31 446.33 476.32L455.26 476.32C455.48 476.32 455.65 476.49 455.65 476.71C455.61 478.98 455.33 489.77 454.46 493.8C454.41 494.01 454.54 494.23 454.75 494.28C455.94 494.42 457.76 494.66 458.58 494.77C458.79 494.81 459 494.67 459.04 494.45L459.05 466.46C459.05 466.24 459.22 466.07 459.44 466.07L461.4 466.07C461.62 466.07 461.8 465.89 461.8 465.67L461.8 464.61C461.81 464.39 461.65 464.21 461.43 464.2ZM456.18 464.31C456.18 464.31 454.45 464.49 454.82 464.97C455.1 465.46 455.58 465.8 456.14 465.92C455.95 468.7 455.85 474.5 455.85 474.5L446.46 474.31C446.46 474.31 447.49 467.68 450.71 462.77C453.94 457.86 456.21 455.36 456.51 455.23C456.08 464.05 456.18 464.31 456.18 464.31Z" fill="#D71923" fill-opacity="1.000000" fill-rule="nonzero"/>
				<path id="Path 11" d="M459.38 464.2C459.15 464.2 458.96 464.01 458.95 463.78L459.03 454.92C459.03 454.92 459.42 451.88 458.89 446.86C458.5 451.34 457.77 452.23 457.73 452.28C454.09 454.89 450.81 459.16 449.97 460.7C449.9 460.84 449.76 460.92 449.61 460.92L445.5 460.92C445.28 460.92 445.1 461.1 445.1 461.32L445.1 461.71C445.1 461.93 445.28 462.11 445.5 462.11L448.19 462.11C448.41 462.09 448.6 462.25 448.62 462.47C448.62 462.57 448.6 462.66 448.54 462.73C447.39 464.6 444.07 470.38 443.1 476.4C441.96 483.54 442.18 490.43 443.46 494.53C443.52 494.72 443.71 494.84 443.9 494.81L445.92 494.56C446.14 494.54 446.31 494.35 446.29 494.13C445.96 492.02 444.63 482.41 445.93 476.63C445.97 476.44 446.14 476.31 446.33 476.32L455.26 476.32C455.48 476.32 455.65 476.49 455.65 476.71C455.61 478.98 455.33 489.77 454.46 493.8C454.41 494.01 454.54 494.23 454.75 494.28C455.94 494.42 457.76 494.66 458.58 494.77C458.79 494.81 459 494.67 459.04 494.45L459.05 466.46C459.05 466.24 459.22 466.07 459.44 466.07L461.4 466.07C461.62 466.07 461.8 465.89 461.8 465.67L461.8 464.61C461.81 464.39 461.65 464.21 461.43 464.2L459.38 464.2ZM454.82 464.97C455.1 465.46 455.58 465.8 456.14 465.92C455.95 468.7 455.85 474.5 455.85 474.5L446.46 474.31C446.46 474.31 447.49 467.68 450.71 462.77C453.94 457.86 456.21 455.36 456.51 455.23C456.08 464.05 456.18 464.31 456.18 464.31C456.18 464.31 454.45 464.49 454.82 464.97Z" stroke="#707070" stroke-opacity="0" stroke-width="1.000000"/>
			</g>
			<g style="mix-blend-mode:normal">
				<path id="Path 12" d="M450.63 461.92L456.3 462.06L450.63 462.21L450.63 461.92Z" fill="#D71923" fill-opacity="1.000000" fill-rule="nonzero"/>
				<path id="Path 12" d="M456.3 462.06L450.63 462.21L450.63 461.92L456.3 462.06Z" stroke="#707070" stroke-opacity="0" stroke-width="1.000000"/>
			</g>
			<g style="mix-blend-mode:normal">
				<path id="Path 13" d="M450.63 463.71L456.3 463.86L450.63 464L450.63 463.71Z" fill="#D71923" fill-opacity="1.000000" fill-rule="nonzero"/>
				<path id="Path 13" d="M456.3 463.86L450.63 464L450.63 463.71L456.3 463.86Z" stroke="#707070" stroke-opacity="0" stroke-width="1.000000"/>
			</g>
			<g style="mix-blend-mode:normal">
				<path id="Path 14" d="M450.63 465.5L456.3 465.64L450.63 465.79L450.63 465.5Z" fill="#D71923" fill-opacity="1.000000" fill-rule="nonzero"/>
				<path id="Path 14" d="M456.3 465.64L450.63 465.79L450.63 465.5L456.3 465.64Z" stroke="#707070" stroke-opacity="0" stroke-width="1.000000"/>
			</g>
			<g style="mix-blend-mode:normal">
				<path id="Path 15" d="M448.29 467.29L456.3 467.43L448.29 467.58L448.29 467.29Z" fill="#D71923" fill-opacity="1.000000" fill-rule="nonzero"/>
				<path id="Path 15" d="M456.3 467.43L448.29 467.58L448.29 467.29L456.3 467.43Z" stroke="#707070" stroke-opacity="0" stroke-width="1.000000"/>
			</g>
			<g style="mix-blend-mode:normal">
				<path id="Path 16" d="M448.29 469.08L456.3 469.23L448.29 469.37L448.29 469.08Z" fill="#D71923" fill-opacity="1.000000" fill-rule="nonzero"/>
				<path id="Path 16" d="M456.3 469.23L448.29 469.37L448.29 469.08L456.3 469.23Z" stroke="#707070" stroke-opacity="0" stroke-width="1.000000"/>
			</g>
			<g style="mix-blend-mode:normal">
				<path id="Path 17" d="M448.29 470.87L456.3 471.01L448.29 471.16L448.29 470.87Z" fill="#D71923" fill-opacity="1.000000" fill-rule="nonzero"/>
				<path id="Path 17" d="M456.3 471.01L448.29 471.16L448.29 470.87L456.3 471.01Z" stroke="#707070" stroke-opacity="0" stroke-width="1.000000"/>
			</g>
			<g style="mix-blend-mode:normal">
				<path id="Path 18" d="M448.29 472.66L456.3 472.8L448.29 472.95L448.29 472.66Z" fill="#D71923" fill-opacity="1.000000" fill-rule="nonzero"/>
				<path id="Path 18" d="M456.3 472.8L448.29 472.95L448.29 472.66L456.3 472.8Z" stroke="#707070" stroke-opacity="0" stroke-width="1.000000"/>
			</g>
			<g style="mix-blend-mode:normal">
				<path id="Path 19" d="M446.6 477.68L453.47 477.83L446.6 477.97L446.6 477.68Z" fill="#D71923" fill-opacity="1.000000" fill-rule="nonzero"/>
				<path id="Path 19" d="M453.47 477.83L446.6 477.97L446.6 477.68L453.47 477.83Z" stroke="#707070" stroke-opacity="0" stroke-width="1.000000"/>
			</g>
			<g style="mix-blend-mode:normal">
				<path id="Path 20" d="M446.6 480.07L453.47 480.21L446.6 480.36L446.6 480.07Z" fill="#D71923" fill-opacity="1.000000" fill-rule="nonzero"/>
				<path id="Path 20" d="M453.47 480.21L446.6 480.36L446.6 480.07L453.47 480.21Z" stroke="#707070" stroke-opacity="0" stroke-width="1.000000"/>
			</g>
			<g style="mix-blend-mode:normal">
				<path id="Path 21" d="M446.6 482.46L453.47 482.6L446.6 482.74L446.6 482.46Z" fill="#D71923" fill-opacity="1.000000" fill-rule="nonzero"/>
				<path id="Path 21" d="M453.47 482.6L446.6 482.74L446.6 482.46L453.47 482.6Z" stroke="#707070" stroke-opacity="0" stroke-width="1.000000"/>
			</g>
			<g style="mix-blend-mode:normal">
				<path id="Path 22" d="M445.45 484.84L453.47 484.99L445.45 485.13L445.45 484.84Z" fill="#D71923" fill-opacity="1.000000" fill-rule="nonzero"/>
				<path id="Path 22" d="M453.47 484.99L445.45 485.13L445.45 484.84L453.47 484.99Z" stroke="#707070" stroke-opacity="0" stroke-width="1.000000"/>
			</g>
			<g style="mix-blend-mode:normal">
				<path id="Path 23" d="M445.45 487.23L453.47 487.37L445.45 487.52L445.45 487.23Z" fill="#D71923" fill-opacity="1.000000" fill-rule="nonzero"/>
				<path id="Path 23" d="M453.47 487.37L445.45 487.52L445.45 487.23L453.47 487.37Z" stroke="#707070" stroke-opacity="0" stroke-width="1.000000"/>
			</g>
			<g style="mix-blend-mode:normal">
				<path id="Path 24" d="M445.45 489.62L453.47 489.76L445.45 489.9L445.45 489.62Z" fill="#D71923" fill-opacity="1.000000" fill-rule="nonzero"/>
				<path id="Path 24" d="M453.47 489.76L445.45 489.9L445.45 489.62L453.47 489.76Z" stroke="#707070" stroke-opacity="0" stroke-width="1.000000"/>
			</g>
			<g style="mix-blend-mode:normal">
				<path id="Path 25" d="M445.45 492L453.47 492.15L445.45 492.29L445.45 492Z" fill="#D71923" fill-opacity="1.000000" fill-rule="nonzero"/>
				<path id="Path 25" d="M453.47 492.15L445.45 492.29L445.45 492L453.47 492.15Z" stroke="#707070" stroke-opacity="0" stroke-width="1.000000"/>
			</g>
			<g style="mix-blend-mode:normal">
				<path id="Path 26" d="M463.97 494.85L487.99 494.85L487.99 492.71L485.86 492.71L485.86 491.21L484.03 491.21L483.29 479.24L481.86 479.24L481.35 468.9L480.14 468.25L479.81 457.93L478.31 457.31L478.09 446.72L476.95 446.04L476.73 440.77L475.98 440.48L475.98 436.81L475.67 436.68L475.71 433.96L475.41 433.96L475.19 430.4L475.12 434.4L474.75 434.45L474.75 435.89L474.39 435.94L474.5 438.71L474.02 438.87L474.06 441.61L473.69 441.7L473.65 445.06L473.21 445.47L473.21 449.92L472.22 450.39L472.11 460.62L470.87 460.89L470.65 471.56L469.44 471.56L469.26 482.04L467.75 482.07L467.24 491.24L465.74 491.21L465.59 492.16L463.97 492.32L463.97 494.85Z" fill="#D71923" fill-opacity="1.000000" fill-rule="nonzero"/>
				<path id="Path 26" d="M487.99 494.85L487.99 492.71L485.86 492.71L485.86 491.21L484.03 491.21L483.29 479.24L481.86 479.24L481.35 468.9L480.14 468.25L479.81 457.93L478.31 457.31L478.09 446.72L476.95 446.04L476.73 440.77L475.98 440.48L475.98 436.81L475.67 436.68L475.71 433.96L475.41 433.96L475.19 430.4L475.12 434.4L474.75 434.45L474.75 435.89L474.39 435.94L474.5 438.71L474.02 438.87L474.06 441.61L473.69 441.7L473.65 445.06L473.21 445.47L473.21 449.92L472.22 450.39L472.11 460.62L470.87 460.89L470.65 471.56L469.44 471.56L469.26 482.04L467.75 482.07L467.24 491.24L465.74 491.21L465.59 492.16L463.97 492.32L463.97 494.85L487.99 494.85Z" stroke="#707070" stroke-opacity="0" stroke-width="1.000000"/>
			</g>
			<g style="mix-blend-mode:normal">
				<path id="Path 27" d="M383.95 476.38C384.01 481.28 382.04 485.99 378.5 489.39C375.11 492.9 370.41 494.86 365.52 494.81L353 494.81L353 457.9L363.71 457.9C369.59 457.9 374.44 459.66 378.25 463.18C382.05 466.69 383.95 471.1 383.95 476.38ZM380.21 475.85C380.16 471.87 378.4 468.11 375.36 465.54C372.33 462.79 368.36 461.3 364.27 461.36L356.57 461.36L356.57 491.34L365.33 491.34C369.38 491.41 373.27 489.74 376.01 486.76C378.87 483.87 380.39 479.91 380.21 475.85Z" fill="#D71923" fill-opacity="1.000000" fill-rule="nonzero"/>
				<path id="Path 27" d="M378.5 489.39C375.11 492.9 370.41 494.86 365.52 494.81L353 494.81L353 457.9L363.71 457.9C369.59 457.9 374.44 459.66 378.25 463.18C382.05 466.69 383.95 471.1 383.95 476.38C384.01 481.28 382.04 485.99 378.5 489.39ZM375.36 465.54C372.33 462.79 368.36 461.3 364.27 461.36L356.57 461.36L356.57 491.34L365.33 491.34C369.38 491.41 373.27 489.74 376.01 486.76C378.87 483.87 380.39 479.91 380.21 475.85C380.16 471.87 378.4 468.11 375.36 465.54Z" stroke="#707070" stroke-opacity="0" stroke-width="1.000000"/>
			</g>
			<g style="mix-blend-mode:normal">
				<path id="Path 28" d="M412.24 482.81C412.33 486.23 410.98 489.53 408.53 491.92C406.16 494.32 402.9 495.61 399.53 495.49C396.23 495.52 393.07 494.17 390.8 491.77C388.44 489.32 387.25 486.29 387.25 482.68L387.25 457.82L390.89 457.82L390.89 482.03C390.82 484.61 391.71 487.12 393.4 489.07C394.97 490.94 397.31 491.99 399.75 491.93C402.12 491.97 404.4 491.01 406.02 489.29C407.73 487.55 408.66 485.19 408.59 482.75L408.59 457.83L412.24 457.83L412.24 482.81Z" fill="#D71923" fill-opacity="1.000000" fill-rule="nonzero"/>
				<path id="Path 28" d="M408.53 491.92C406.16 494.32 402.9 495.61 399.53 495.49C396.23 495.52 393.07 494.17 390.8 491.77C388.44 489.32 387.25 486.29 387.25 482.68L387.25 457.82L390.89 457.82L390.89 482.03C390.82 484.61 391.71 487.12 393.4 489.07C394.97 490.94 397.31 491.99 399.75 491.93C402.12 491.97 404.4 491.01 406.02 489.29C407.73 487.55 408.66 485.19 408.59 482.75L408.59 457.83L412.24 457.83L412.24 482.81C412.33 486.23 410.98 489.53 408.53 491.92Z" stroke="#707070" stroke-opacity="0" stroke-width="1.000000"/>
			</g>
			<g style="mix-blend-mode:normal">
				<path id="Path 29" d="M439.4 484.3C439.5 487.24 438.39 489.73 436.07 491.76C433.83 493.76 430.93 494.84 427.93 494.81L416.18 494.81L416.18 457.87L426.64 457.87C429.41 457.81 432.11 458.72 434.27 460.46C436.54 462.28 437.67 464.58 437.67 467.36C437.67 470.66 436.27 473.22 433.45 475.04C437.26 476.83 439.24 479.92 439.4 484.3ZM426.57 461.32L420.02 461.32L420.02 473.66L426.77 473.66C428.6 473.69 430.4 473.09 431.84 471.96C433.25 470.94 434.06 469.3 434.04 467.57C434.11 465.73 433.23 463.97 431.72 462.92C430.23 461.82 428.42 461.26 426.57 461.32ZM435.61 483.94C435.48 481.61 434.55 479.84 432.83 478.63C431.27 477.55 429.17 477.01 426.55 477.01L420.02 477.01L420.02 491.26L426.74 491.26C429.58 491.26 431.8 490.59 433.41 489.25C434.98 487.96 435.81 485.97 435.61 483.94Z" fill="#D71923" fill-opacity="1.000000" fill-rule="nonzero"/>
				<path id="Path 29" d="M436.07 491.76C433.83 493.76 430.93 494.84 427.93 494.81L416.18 494.81L416.18 457.87L426.64 457.87C429.41 457.81 432.11 458.72 434.27 460.46C436.54 462.28 437.67 464.58 437.67 467.36C437.67 470.66 436.27 473.22 433.45 475.04C437.26 476.83 439.24 479.92 439.4 484.3C439.5 487.24 438.39 489.73 436.07 491.76ZM420.02 461.32L420.02 473.66L426.77 473.66C428.6 473.69 430.4 473.09 431.84 471.96C433.25 470.94 434.06 469.3 434.04 467.57C434.11 465.73 433.23 463.97 431.72 462.92C430.23 461.82 428.42 461.26 426.57 461.32L420.02 461.32ZM432.83 478.63C431.27 477.55 429.17 477.01 426.55 477.01L420.02 477.01L420.02 491.26L426.74 491.26C429.58 491.26 431.8 490.59 433.41 489.25C434.98 487.96 435.81 485.97 435.61 483.94C435.48 481.61 434.55 479.84 432.83 478.63Z" stroke="#707070" stroke-opacity="0" stroke-width="1.000000"/>
			</g>
			<g style="mix-blend-mode:normal">
				<path id="Eğer daha önce kayıt olduysanız ya da yarım kalan bir
kaydınız varsa giriş yapmak için tıklayın." d="M438.07 624.5C438.07 624.97 437.68 625.4 437.15 625.4C436.68 625.4 436.24 624.97 436.24 624.5C436.24 623.97 436.68 623.59 437.15 623.59C437.68 623.59 438.07 623.97 438.07 624.5ZM441.33 624.5C441.33 624.97 440.95 625.4 440.43 625.4C439.95 625.4 439.52 624.97 439.52 624.5C439.52 623.97 439.95 623.59 440.43 623.59C440.95 623.59 441.33 623.97 441.33 624.5ZM749.93 624.5C749.93 625 749.5 625.4 748.97 625.4C748.45 625.4 748.02 625 748.02 624.5C748.02 624 748.45 623.59 748.97 623.59C749.5 623.59 749.93 624 749.93 624.5ZM361.52 635.59L354.41 635.59L354.41 623.95L361.43 623.95L361.43 625.2L355.81 625.2L355.81 629.13L361.06 629.13L361.06 630.38L355.81 630.38L355.81 634.34L361.52 634.34L361.52 635.59ZM367.45 625.06C368.25 625.06 368.56 624.54 368.56 623.95L369.81 623.95C369.81 625.18 368.9 626.04 367.45 626.04C366.02 626.04 365.11 625.18 365.11 623.95L366.36 623.95C366.36 624.54 366.65 625.06 367.45 625.06ZM399.15 634.25C398.86 634.72 398.29 635.77 396.61 635.77C394.43 635.77 392.9 634.02 392.9 631.25C392.9 628.5 394.43 626.75 396.63 626.75C398.34 626.75 398.86 627.79 399.15 628.25L399.27 628.25L399.27 623.95L400.61 623.95L400.61 635.59L399.31 635.59L399.31 634.25L399.15 634.25ZM415.9 627.95C414.58 627.95 413.61 628.81 413.61 630.34L413.61 635.59L412.27 635.59L412.27 623.95L413.61 623.95L413.61 628.22L413.72 628.22C414.13 627.32 414.92 626.75 416.29 626.75C418.08 626.75 419.27 627.8 419.27 630.04L419.27 635.59L417.93 635.59L417.93 630.13C417.93 628.75 417.17 627.95 415.9 627.95ZM478.24 635.59L476.9 635.59L476.9 623.95L478.24 623.95L478.24 630.75L478.4 630.75L482.22 626.86L483.88 626.86L480.19 630.59L484.15 635.59L482.45 635.59L479.18 631.45L478.24 632.32L478.24 635.59ZM526.88 623.95L528.22 623.95L528.22 635.59L526.88 635.59L526.88 623.95ZM536.52 634.25C536.22 634.72 535.65 635.77 533.97 635.77C531.79 635.77 530.27 634.02 530.27 631.25C530.27 628.5 531.79 626.75 534 626.75C535.7 626.75 536.22 627.79 536.52 628.25L536.63 628.25L536.63 623.95L537.97 623.95L537.97 635.59L536.68 635.59L536.68 634.25L536.52 634.25ZM630.52 634.25C630.22 634.72 629.65 635.77 627.97 635.77C625.79 635.77 624.27 634.02 624.27 631.25C624.27 628.5 625.79 626.75 628 626.75C629.7 626.75 630.22 627.79 630.52 628.25L630.63 628.25L630.63 623.95L631.97 623.95L631.97 635.59L630.68 635.59L630.68 634.25L630.52 634.25ZM695.29 635.59L693.95 635.59L693.95 623.95L695.29 623.95L695.29 630.75L695.45 630.75L699.27 626.86L700.93 626.86L697.24 630.59L701.2 635.59L699.5 635.59L696.23 631.45L695.29 632.32L695.29 635.59ZM711.68 623.95L713.02 623.95L713.02 635.59L711.68 635.59L711.68 623.95ZM739.83 635.59L738.54 635.59L738.54 623.95L739.88 623.95L739.88 628.25L740 628.25C740.29 627.79 740.82 626.75 742.52 626.75C744.72 626.75 746.25 628.5 746.25 631.25C746.25 634.02 744.72 635.77 742.54 635.77C740.86 635.77 740.29 634.72 740 634.25L739.83 634.25L739.83 635.59ZM508.95 626.86L510.81 626.86L510.81 628L508.95 628L508.95 633.09C508.95 634.22 509.52 634.4 510.11 634.4C510.4 634.4 510.59 634.36 510.7 634.34L510.97 635.54C510.79 635.61 510.47 635.7 509.97 635.7C508.84 635.7 507.61 634.97 507.61 633.45L507.61 628L506.29 628L506.29 626.86L507.61 626.86L507.61 624.77L508.95 624.77L508.95 626.86ZM384.2 635.59L382.86 635.59L382.86 626.86L384.16 626.86L384.16 628.18L384.25 628.18C384.57 627.31 385.47 626.72 386.52 626.72C386.72 626.72 387.07 626.74 387.22 626.75L387.22 628.11C387.13 628.09 386.76 628.02 386.41 628.02C385.13 628.02 384.2 628.88 384.2 630.06L384.2 635.59ZM667.13 635.59L665.79 635.59L665.79 626.86L667.09 626.86L667.09 628.18L667.18 628.18C667.5 627.31 668.4 626.72 669.45 626.72C669.65 626.72 670 626.74 670.15 626.75L670.15 628.11C670.06 628.09 669.69 628.02 669.34 628.02C668.06 628.02 667.13 628.88 667.13 630.06L667.13 635.59ZM753.43 635.59L752.09 635.59L752.09 626.86L753.38 626.86L753.38 628.18L753.47 628.18C753.79 627.31 754.7 626.72 755.75 626.72C755.95 626.72 756.3 626.74 756.45 626.75L756.45 628.11C756.36 628.09 755.99 628.02 755.63 628.02C754.36 628.02 753.43 628.88 753.43 630.06L753.43 635.59ZM371.09 635.84C371.09 638.09 369.4 639.04 367.31 639.04C365.36 639.04 364.29 638.21 363.75 637.29L364.81 636.54C365.17 637.02 365.73 637.86 367.31 637.86C368.72 637.86 369.75 637.2 369.75 635.75L369.75 633.97L369.63 633.97C369.34 634.45 368.79 635.45 367.09 635.45C364.97 635.45 363.38 633.9 363.38 631.18C363.38 628.5 364.9 626.75 367.11 626.75C368.81 626.75 369.36 627.79 369.65 628.25L369.79 628.25L369.79 626.86L371.09 626.86L371.09 635.84ZM380.68 633.56C380.27 634.88 378.97 635.77 377.2 635.77C374.68 635.77 373.13 633.97 373.13 631.29C373.13 628.61 374.7 626.75 377.06 626.75C378.88 626.75 380.81 627.86 380.81 631.11L380.81 631.68L374.48 631.68C374.54 633.55 375.63 634.56 377.2 634.56C378.25 634.56 379.04 634.11 379.38 633.2L380.68 633.56ZM408.4 634.4C408.13 634.97 407.33 635.79 405.82 635.79C404.15 635.79 402.83 634.81 402.83 633.11C402.83 631.11 404.6 630.75 406.22 630.54C407.82 630.34 408.47 630.4 408.47 629.75L408.47 629.7C408.47 628.58 407.87 627.93 406.63 627.93C405.35 627.93 404.65 628.61 404.36 629.25L403.08 628.79C403.77 627.2 405.27 626.75 406.58 626.75C407.7 626.75 409.82 627.06 409.82 629.84L409.82 635.59L408.47 635.59L408.47 634.4L408.4 634.4ZM426.88 634.4C426.61 634.97 425.81 635.79 424.29 635.79C422.63 635.79 421.31 634.81 421.31 633.11C421.31 631.11 423.08 630.75 424.7 630.54C426.29 630.34 426.95 630.4 426.95 629.75L426.95 629.7C426.95 628.58 426.34 627.93 425.11 627.93C423.83 627.93 423.13 628.61 422.84 629.25L421.56 628.79C422.25 627.2 423.75 626.75 425.06 626.75C426.18 626.75 428.29 627.06 428.29 629.84L428.29 635.59L426.95 635.59L426.95 634.4L426.88 634.4ZM442.74 631.27C442.74 633.97 441.15 635.77 438.79 635.77C436.43 635.77 434.83 633.97 434.83 631.27C434.83 628.54 436.43 626.75 438.79 626.75C441.15 626.75 442.74 628.54 442.74 631.27ZM448.36 627.95C447.08 627.95 446.13 628.81 446.13 630.34L446.13 635.59L444.79 635.59L444.79 626.86L446.09 626.86L446.09 628.22L446.2 628.22C446.61 627.34 447.43 626.75 448.75 626.75C450.51 626.75 451.7 627.81 451.7 630.04L451.7 635.59L450.36 635.59L450.36 630.13C450.36 628.76 449.6 627.95 448.36 627.95ZM461.13 633.04C460.9 634.59 459.63 635.77 457.7 635.77C455.24 635.77 453.74 633.88 453.74 631.27C453.74 628.61 455.31 626.75 457.68 626.75C459.52 626.75 460.9 627.84 461.13 629.47L459.79 629.47C459.59 628.68 458.88 627.95 457.7 627.95C456.13 627.95 455.09 629.25 455.09 631.22C455.09 633.25 456.11 634.56 457.7 634.56C458.74 634.56 459.54 634 459.79 633.04L461.13 633.04ZM470.22 633.56C469.81 634.88 468.52 635.77 466.75 635.77C464.22 635.77 462.68 633.97 462.68 631.29C462.68 628.61 464.25 626.75 466.61 626.75C468.43 626.75 470.36 627.86 470.36 631.11L470.36 631.68L464.02 631.68C464.09 633.55 465.17 634.56 466.75 634.56C467.8 634.56 468.59 634.11 468.93 633.2L470.22 633.56ZM490.77 634.4C490.5 634.97 489.7 635.79 488.18 635.79C486.52 635.79 485.2 634.81 485.2 633.11C485.2 631.11 486.97 630.75 488.58 630.54C490.18 630.34 490.83 630.4 490.83 629.75L490.83 629.7C490.83 628.58 490.23 627.93 489 627.93C487.72 627.93 487.02 628.61 486.72 629.25L485.45 628.79C486.13 627.2 487.63 626.75 488.95 626.75C490.07 626.75 492.18 627.06 492.18 629.84L492.18 635.59L490.83 635.59L490.83 634.4L490.77 634.4ZM524.84 631.27C524.84 633.97 523.25 635.77 520.88 635.77C518.52 635.77 516.93 633.97 516.93 631.27C516.93 628.54 518.52 626.75 520.88 626.75C523.25 626.75 524.84 628.54 524.84 631.27ZM561.9 626.75C563.63 626.75 564.57 627.58 565 628.81L563.79 629.15C563.56 628.55 563.07 627.9 561.9 627.9C560.84 627.9 560.04 628.45 560.04 629.2C560.04 629.87 560.51 630.21 561.54 630.47L562.84 630.79C564.4 631.17 565.15 631.94 565.15 633.15C565.15 634.66 563.77 635.77 561.75 635.77C559.96 635.77 558.74 634.98 558.43 633.5L559.7 633.18C559.94 634.11 560.63 634.59 561.72 634.59C562.97 634.59 563.77 633.97 563.77 633.22C563.77 632.62 563.35 632.2 562.47 632L561.02 631.65C559.41 631.28 558.7 630.47 558.7 629.27C558.7 627.79 560.06 626.75 561.9 626.75ZM572.34 634.4C572.06 634.97 571.27 635.79 569.75 635.79C568.09 635.79 566.77 634.81 566.77 633.11C566.77 631.11 568.53 630.75 570.15 630.54C571.75 630.34 572.4 630.4 572.4 629.75L572.4 629.7C572.4 628.58 571.8 627.93 570.56 627.93C569.28 627.93 568.59 628.61 568.29 629.25L567.02 628.79C567.7 627.2 569.2 626.75 570.52 626.75C571.63 626.75 573.75 627.06 573.75 629.84L573.75 635.59L572.4 635.59L572.4 634.4L572.34 634.4ZM579.77 627.95C578.48 627.95 577.54 628.81 577.54 630.34L577.54 635.59L576.2 635.59L576.2 626.86L577.5 626.86L577.5 628.22L577.61 628.22C578.02 627.34 578.84 626.75 580.16 626.75C581.92 626.75 583.11 627.81 583.11 630.04L583.11 635.59L581.77 635.59L581.77 630.13C581.77 628.76 581.01 627.95 579.77 627.95ZM616.31 634.4C616.04 634.97 615.24 635.79 613.72 635.79C612.06 635.79 610.74 634.81 610.74 633.11C610.74 631.11 612.51 630.75 614.13 630.54C615.72 630.34 616.38 630.4 616.38 629.75L616.38 629.7C616.38 628.58 615.77 627.93 614.54 627.93C613.26 627.93 612.56 628.61 612.27 629.25L610.99 628.79C611.68 627.2 613.18 626.75 614.49 626.75C615.61 626.75 617.72 627.06 617.72 629.84L617.72 635.59L616.38 635.59L616.38 634.4L616.31 634.4ZM639.77 634.4C639.5 634.97 638.7 635.79 637.18 635.79C635.52 635.79 634.2 634.81 634.2 633.11C634.2 631.11 635.97 630.75 637.58 630.54C639.18 630.34 639.83 630.4 639.83 629.75L639.83 629.7C639.83 628.58 639.23 627.93 638 627.93C636.72 627.93 636.02 628.61 635.72 629.25L634.45 628.79C635.13 627.2 636.63 626.75 637.95 626.75C639.07 626.75 641.18 627.06 641.18 629.84L641.18 635.59L639.83 635.59L639.83 634.4L639.77 634.4ZM661.93 634.4C661.65 634.97 660.86 635.79 659.34 635.79C657.68 635.79 656.36 634.81 656.36 633.11C656.36 631.11 658.13 630.75 659.74 630.54C661.34 630.34 661.99 630.4 661.99 629.75L661.99 629.7C661.99 628.58 661.39 627.93 660.15 627.93C658.88 627.93 658.18 628.61 657.88 629.25L656.61 628.79C657.29 627.2 658.79 626.75 660.11 626.75C661.22 626.75 663.34 627.06 663.34 629.84L663.34 635.59L661.99 635.59L661.99 634.4L661.93 634.4ZM676.88 635.59L675.54 635.59L675.54 626.86L676.84 626.86L676.84 628.22L676.95 628.22C677.31 627.29 678.15 626.75 679.29 626.75C680.44 626.75 681.2 627.29 681.63 628.22L681.72 628.22C682.17 627.32 683.09 626.75 684.34 626.75C685.89 626.75 687 627.7 687 629.75L687 635.59L685.65 635.59L685.65 629.75C685.65 628.46 684.84 627.95 683.88 627.95C682.65 627.95 681.95 628.78 681.95 629.9L681.95 635.59L680.59 635.59L680.59 629.61C680.59 628.61 679.88 627.95 678.86 627.95C677.81 627.95 676.88 628.85 676.88 630.13L676.88 635.59ZM707.81 634.4C707.54 634.97 706.74 635.79 705.22 635.79C703.56 635.79 702.24 634.81 702.24 633.11C702.24 631.11 704.01 630.75 705.63 630.54C707.22 630.34 707.88 630.4 707.88 629.75L707.88 629.7C707.88 628.58 707.27 627.93 706.04 627.93C704.76 627.93 704.06 628.61 703.77 629.25L702.49 628.79C703.18 627.2 704.68 626.75 705.99 626.75C707.11 626.75 709.22 627.06 709.22 629.84L709.22 635.59L707.88 635.59L707.88 634.4L707.81 634.4ZM720.63 634.4C720.36 634.97 719.56 635.79 718.04 635.79C716.38 635.79 715.06 634.81 715.06 633.11C715.06 631.11 716.83 630.75 718.45 630.54C720.04 630.34 720.7 630.4 720.7 629.75L720.7 629.7C720.7 628.58 720.09 627.93 718.86 627.93C717.58 627.93 716.88 628.61 716.59 629.25L715.31 628.79C716 627.2 717.5 626.75 718.81 626.75C719.93 626.75 722.04 627.06 722.04 629.84L722.04 635.59L720.7 635.59L720.7 634.4L720.63 634.4ZM728.07 627.95C726.78 627.95 725.83 628.81 725.83 630.34L725.83 635.59L724.49 635.59L724.49 626.86L725.79 626.86L725.79 628.22L725.9 628.22C726.32 627.34 727.13 626.75 728.45 626.75C730.22 626.75 731.4 627.81 731.4 630.04L731.4 635.59L730.07 635.59L730.07 630.13C730.07 628.76 729.31 627.95 728.07 627.95ZM497.75 636.86C497.24 638.21 496.39 638.86 495.18 638.86C494.72 638.86 494.34 638.77 494.2 638.7L494.54 637.52C495.52 637.77 496.12 637.65 496.61 636.31L496.86 635.63L493.63 626.86L495.09 626.86L497.5 633.81L497.59 633.81L500 626.86L501.45 626.86L497.75 636.86ZM504.56 635.59L503.22 635.59L503.22 626.86L504.56 626.86L504.56 635.59ZM543.86 634.4C544.86 634.4 546.11 633.65 546.11 632.02L546.11 626.86L547.45 626.86L547.45 635.59L546.11 635.59L546.11 634.11L546.02 634.11C545.61 635 544.75 635.7 543.43 635.7C541.79 635.7 540.61 634.63 540.61 632.4L540.61 626.86L541.95 626.86L541.95 632.31C541.95 633.59 542.75 634.4 543.86 634.4ZM553.34 636.86C552.83 638.21 551.98 638.86 550.77 638.86C550.31 638.86 549.93 638.77 549.79 638.7L550.13 637.52C551.11 637.77 551.71 637.65 552.2 636.31L552.45 635.63L549.22 626.86L550.68 626.86L553.09 633.81L553.18 633.81L555.59 626.86L557.04 626.86L553.34 636.86ZM586.9 635.59L585.56 635.59L585.56 626.86L586.9 626.86L586.9 635.59ZM595.95 635.59L589.11 635.59L589.11 634.56L594.07 628.2L594.07 628.11L589.27 628.11L589.27 626.86L595.79 626.86L595.79 627.93L590.97 634.25L590.97 634.34L595.95 634.34L595.95 635.59ZM605.95 636.86C605.44 638.21 604.59 638.86 603.38 638.86C602.93 638.86 602.54 638.77 602.4 638.7L602.74 637.52C603.72 637.77 604.33 637.65 604.81 636.31L605.06 635.63L601.84 626.86L603.29 626.86L605.7 633.81L605.79 633.81L608.2 626.86L609.65 626.86L605.95 636.86ZM651.56 636.86C651.06 638.21 650.21 638.86 648.99 638.86C648.54 638.86 648.15 638.77 648.02 638.7L648.36 637.52C649.34 637.77 649.94 637.65 650.43 636.31L650.68 635.63L647.45 626.86L648.9 626.86L651.31 633.81L651.4 633.81L653.81 626.86L655.27 626.86L651.56 636.86ZM673.08 635.59L671.74 635.59L671.74 626.86L673.08 626.86L673.08 635.59ZM749.63 635.59L748.29 635.59L748.29 626.86L749.63 626.86L749.63 635.59ZM364.72 631.15C364.72 632.97 365.59 634.25 367.27 634.25C368.88 634.25 369.77 633.09 369.77 631.15C369.77 629.27 368.9 627.95 367.27 627.95C365.56 627.95 364.72 629.38 364.72 631.15ZM377.06 627.95C375.53 627.95 374.57 629.16 374.48 630.52L379.45 630.52C379.45 629.04 378.52 627.95 377.06 627.95ZM394.25 631.22C394.25 633.09 395.11 634.56 396.79 634.56C398.4 634.56 399.29 633.2 399.29 631.22C399.29 629.27 398.43 627.95 396.79 627.95C395.09 627.95 394.25 629.38 394.25 631.22ZM436.18 631.27C436.18 633.02 436.99 634.56 438.79 634.56C440.58 634.56 441.4 633.02 441.4 631.27C441.4 629.52 440.58 627.95 438.79 627.95C436.99 627.95 436.18 629.52 436.18 631.27ZM466.61 627.95C465.07 627.95 464.11 629.16 464.02 630.52L469 630.52C469 629.04 468.06 627.95 466.61 627.95ZM518.27 631.27C518.27 633.02 519.09 634.56 520.88 634.56C522.68 634.56 523.5 633.02 523.5 631.27C523.5 629.52 522.68 627.95 520.88 627.95C519.09 627.95 518.27 629.52 518.27 631.27ZM531.61 631.22C531.61 633.09 532.47 634.56 534.15 634.56C535.77 634.56 536.65 633.2 536.65 631.22C536.65 629.27 535.79 627.95 534.15 627.95C532.45 627.95 531.61 629.38 531.61 631.22ZM625.61 631.22C625.61 633.09 626.47 634.56 628.15 634.56C629.77 634.56 630.65 633.2 630.65 631.22C630.65 629.27 629.79 627.95 628.15 627.95C626.45 627.95 625.61 629.38 625.61 631.22ZM742.36 627.95C740.72 627.95 739.86 629.27 739.86 631.22C739.86 633.2 740.75 634.56 742.36 634.56C744.04 634.56 744.91 633.09 744.91 631.22C744.91 629.38 744.07 627.95 742.36 627.95ZM404.18 633.18C404.18 634.11 404.95 634.59 406.02 634.59C407.61 634.59 408.47 633.52 408.47 632.43L408.47 631.2C408.24 631.47 406.72 631.63 406.15 631.7C405.11 631.84 404.18 632.15 404.18 633.18ZM422.66 633.18C422.66 634.11 423.43 634.59 424.5 634.59C426.09 634.59 426.95 633.52 426.95 632.43L426.95 631.2C426.72 631.47 425.2 631.63 424.63 631.7C423.59 631.84 422.66 632.15 422.66 633.18ZM486.54 633.18C486.54 634.11 487.32 634.59 488.38 634.59C489.97 634.59 490.83 633.52 490.83 632.43L490.83 631.2C490.61 631.47 489.08 631.63 488.52 631.7C487.47 631.84 486.54 632.15 486.54 633.18ZM568.11 633.18C568.11 634.11 568.88 634.59 569.95 634.59C571.54 634.59 572.4 633.52 572.4 632.43L572.4 631.2C572.18 631.47 570.65 631.63 570.09 631.7C569.04 631.84 568.11 632.15 568.11 633.18ZM612.09 633.18C612.09 634.11 612.86 634.59 613.93 634.59C615.52 634.59 616.38 633.52 616.38 632.43L616.38 631.2C616.15 631.47 614.63 631.63 614.06 631.7C613.02 631.84 612.09 632.15 612.09 633.18ZM635.54 633.18C635.54 634.11 636.32 634.59 637.38 634.59C638.97 634.59 639.83 633.52 639.83 632.43L639.83 631.2C639.61 631.47 638.08 631.63 637.52 631.7C636.47 631.84 635.54 632.15 635.54 633.18ZM657.7 633.18C657.7 634.11 658.47 634.59 659.54 634.59C661.13 634.59 661.99 633.52 661.99 632.43L661.99 631.2C661.77 631.47 660.24 631.63 659.68 631.7C658.63 631.84 657.7 632.15 657.7 633.18ZM703.59 633.18C703.59 634.11 704.36 634.59 705.43 634.59C707.02 634.59 707.88 633.52 707.88 632.43L707.88 631.2C707.65 631.47 706.13 631.63 705.56 631.7C704.52 631.84 703.59 632.15 703.59 633.18ZM716.41 633.18C716.41 634.11 717.18 634.59 718.25 634.59C719.84 634.59 720.7 633.52 720.7 632.43L720.7 631.2C720.47 631.47 718.95 631.63 718.38 631.7C717.34 631.84 716.41 632.15 716.41 633.18ZM477.15 656.5C477.15 657 476.72 657.4 476.2 657.4C475.68 657.4 475.24 657 475.24 656.5C475.24 656 475.68 655.59 476.2 655.59C476.72 655.59 477.15 656 477.15 656.5ZM486.9 656.5C486.9 657 486.47 657.4 485.95 657.4C485.43 657.4 484.99 657 484.99 656.5C484.99 656 485.43 655.59 485.95 655.59C486.47 655.59 486.9 656 486.9 656.5ZM567.11 656.5C567.11 657 566.68 657.4 566.15 657.4C565.63 657.4 565.2 657 565.2 656.5C565.2 656 565.63 655.59 566.15 655.59C566.68 655.59 567.11 656 567.11 656.5ZM579.84 656.5C579.84 657 579.41 657.4 578.88 657.4C578.36 657.4 577.93 657 577.93 656.5C577.93 656 578.36 655.59 578.88 655.59C579.41 655.59 579.84 656 579.84 656.5ZM355.56 667.59L354.22 667.59L354.22 655.95L355.56 655.95L355.56 662.75L355.72 662.75L359.54 658.86L361.2 658.86L357.51 662.59L361.47 667.59L359.77 667.59L356.5 663.45L355.56 664.32L355.56 667.59ZM386.06 666.25C385.77 666.72 385.2 667.77 383.52 667.77C381.34 667.77 379.81 666.02 379.81 663.25C379.81 660.5 381.34 658.75 383.54 658.75C385.25 658.75 385.77 659.79 386.06 660.25L386.18 660.25L386.18 655.95L387.52 655.95L387.52 667.59L386.22 667.59L386.22 666.25L386.06 666.25ZM553.61 667.59L552.27 667.59L552.27 655.95L553.61 655.95L553.61 662.75L553.77 662.75L557.59 658.86L559.24 658.86L555.56 662.59L559.52 667.59L557.81 667.59L554.54 663.45L553.61 664.32L553.61 667.59ZM439.27 667.59L437.93 667.59L437.93 658.86L439.22 658.86L439.22 660.18L439.31 660.18C439.63 659.31 440.54 658.72 441.59 658.72C441.79 658.72 442.14 658.74 442.29 658.75L442.29 660.11C442.2 660.09 441.83 660.02 441.47 660.02C440.2 660.02 439.27 660.88 439.27 662.06L439.27 667.59ZM480.65 667.59L479.31 667.59L479.31 658.86L480.61 658.86L480.61 660.18L480.7 660.18C481.02 659.31 481.93 658.72 482.97 658.72C483.17 658.72 483.52 658.74 483.68 658.75L483.68 660.11C483.59 660.09 483.22 660.02 482.86 660.02C481.59 660.02 480.65 660.88 480.65 662.06L480.65 667.59ZM368.09 666.4C367.81 666.97 367.02 667.79 365.5 667.79C363.84 667.79 362.52 666.81 362.52 665.11C362.52 663.11 364.29 662.75 365.9 662.54C367.5 662.34 368.15 662.4 368.15 661.75L368.15 661.7C368.15 660.58 367.55 659.93 366.31 659.93C365.04 659.93 364.34 660.61 364.04 661.25L362.77 660.79C363.45 659.2 364.95 658.75 366.27 658.75C367.38 658.75 369.5 659.06 369.5 661.84L369.5 667.59L368.15 667.59L368.15 666.4L368.09 666.4ZM397.52 659.95C396.23 659.95 395.29 660.81 395.29 662.34L395.29 667.59L393.95 667.59L393.95 658.86L395.25 658.86L395.25 660.22L395.36 660.22C395.77 659.34 396.59 658.75 397.91 658.75C399.67 658.75 400.86 659.81 400.86 662.04L400.86 667.59L399.52 667.59L399.52 662.13C399.52 660.76 398.76 659.95 397.52 659.95ZM434.06 666.4C433.79 666.97 432.99 667.79 431.47 667.79C429.81 667.79 428.49 666.81 428.49 665.11C428.49 663.11 430.26 662.75 431.88 662.54C433.47 662.34 434.13 662.4 434.13 661.75L434.13 661.7C434.13 660.58 433.52 659.93 432.29 659.93C431.01 659.93 430.31 660.61 430.02 661.25L428.74 660.79C429.43 659.2 430.93 658.75 432.24 658.75C433.36 658.75 435.47 659.06 435.47 661.84L435.47 667.59L434.13 667.59L434.13 666.4L434.06 666.4ZM446.97 658.75C448.7 658.75 449.64 659.58 450.06 660.81L448.86 661.15C448.63 660.55 448.14 659.9 446.97 659.9C445.9 659.9 445.11 660.45 445.11 661.2C445.11 661.87 445.58 662.22 446.61 662.47L447.9 662.79C449.46 663.17 450.22 663.94 450.22 665.15C450.22 666.66 448.84 667.77 446.81 667.77C445.03 667.77 443.81 666.98 443.49 665.5L444.77 665.18C445.01 666.11 445.69 666.59 446.79 666.59C448.04 666.59 448.84 665.97 448.84 665.22C448.84 664.62 448.42 664.2 447.54 664L446.09 663.65C444.48 663.28 443.77 662.47 443.77 661.27C443.77 659.79 445.13 658.75 446.97 658.75ZM457.4 666.4C457.13 666.97 456.33 667.79 454.82 667.79C453.15 667.79 451.83 666.81 451.83 665.11C451.83 663.11 453.6 662.75 455.22 662.54C456.82 662.34 457.47 662.4 457.47 661.75L457.47 661.7C457.47 660.58 456.87 659.93 455.63 659.93C454.35 659.93 453.65 660.61 453.36 661.25L452.08 660.79C452.77 659.2 454.27 658.75 455.58 658.75C456.7 658.75 458.82 659.06 458.82 661.84L458.82 667.59L457.47 667.59L457.47 666.4L457.4 666.4ZM473.06 667.84C473.06 670.09 471.38 671.04 469.29 671.04C467.34 671.04 466.27 670.21 465.72 669.29L466.79 668.54C467.15 669.02 467.71 669.86 469.29 669.86C470.7 669.86 471.72 669.2 471.72 667.75L471.72 665.97L471.61 665.97C471.31 666.45 470.77 667.45 469.06 667.45C466.95 667.45 465.36 665.9 465.36 663.18C465.36 660.5 466.88 658.75 469.09 658.75C470.79 658.75 471.34 659.79 471.63 660.25L471.77 660.25L471.77 658.86L473.06 658.86L473.06 667.84ZM492.15 658.75C493.88 658.75 494.82 659.58 495.25 660.81L494.04 661.15C493.81 660.55 493.32 659.9 492.15 659.9C491.09 659.9 490.29 660.45 490.29 661.2C490.29 661.87 490.76 662.22 491.79 662.47L493.09 662.79C494.65 663.17 495.4 663.94 495.4 665.15C495.4 666.51 494.28 667.55 492.57 667.74L492.52 668C493.11 668.09 493.7 668.45 493.7 669.34C493.7 670.31 492.88 671 491.31 671L491.27 670.11C491.97 670.11 492.5 669.9 492.5 669.38C492.5 668.86 492.13 668.72 491.27 668.65L491.46 667.74C489.97 667.6 488.96 666.83 488.68 665.5L489.95 665.18C490.19 666.11 490.88 666.59 491.97 666.59C493.22 666.59 494.02 665.97 494.02 665.22C494.02 664.62 493.6 664.2 492.72 664L491.27 663.65C489.66 663.28 488.95 662.47 488.95 661.27C488.95 659.79 490.31 658.75 492.15 658.75ZM515.72 666.4C515.45 666.97 514.65 667.79 513.13 667.79C511.47 667.79 510.15 666.81 510.15 665.11C510.15 663.11 511.92 662.75 513.54 662.54C515.13 662.34 515.79 662.4 515.79 661.75L515.79 661.7C515.79 660.58 515.18 659.93 513.95 659.93C512.67 659.93 511.97 660.61 511.68 661.25L510.4 660.79C511.09 659.2 512.59 658.75 513.9 658.75C515.02 658.75 517.13 659.06 517.13 661.84L517.13 667.59L515.79 667.59L515.79 666.4L515.72 666.4ZM520.93 670.86L519.59 670.86L519.59 658.86L520.88 658.86L520.88 660.25L521.04 660.25C521.34 659.79 521.86 658.75 523.56 658.75C525.77 658.75 527.29 660.5 527.29 663.25C527.29 666.02 525.77 667.77 523.59 667.77C521.91 667.77 521.34 666.72 521.04 666.25L520.93 666.25L520.93 670.86ZM530.68 667.59L529.34 667.59L529.34 658.86L530.63 658.86L530.63 660.22L530.75 660.22C531.11 659.29 531.95 658.75 533.09 658.75C534.23 658.75 535 659.29 535.43 660.22L535.52 660.22C535.97 659.32 536.88 658.75 538.13 658.75C539.69 658.75 540.79 659.7 540.79 661.75L540.79 667.59L539.45 667.59L539.45 661.75C539.45 660.46 538.63 659.95 537.68 659.95C536.45 659.95 535.75 660.78 535.75 661.9L535.75 667.59L534.38 667.59L534.38 661.61C534.38 660.61 533.67 659.95 532.66 659.95C531.61 659.95 530.68 660.85 530.68 662.13L530.68 667.59ZM548.4 666.4C548.13 666.97 547.33 667.79 545.82 667.79C544.15 667.79 542.83 666.81 542.83 665.11C542.83 663.11 544.6 662.75 546.22 662.54C547.82 662.34 548.47 662.4 548.47 661.75L548.47 661.7C548.47 660.58 547.87 659.93 546.63 659.93C545.35 659.93 544.65 660.61 544.36 661.25L543.08 660.79C543.77 659.2 545.27 658.75 546.58 658.75C547.7 658.75 549.82 659.06 549.82 661.84L549.82 667.59L548.47 667.59L548.47 666.4L548.4 666.4ZM576.24 665.04C576.04 666.47 574.94 667.58 573.25 667.75L573.2 668C573.79 668.09 574.38 668.45 574.38 669.34C574.38 670.31 573.56 671 571.99 671L571.95 670.11C572.65 670.11 573.18 669.9 573.18 669.38C573.18 668.86 572.81 668.72 571.95 668.65L572.14 667.72C570.09 667.4 568.86 665.63 568.86 663.27C568.86 660.61 570.43 658.75 572.79 658.75C574.63 658.75 576.02 659.84 576.24 661.47L574.9 661.47C574.7 660.68 573.99 659.95 572.81 659.95C571.24 659.95 570.2 661.25 570.2 663.22C570.2 665.25 571.22 666.56 572.81 666.56C573.86 666.56 574.65 666 574.9 665.04L576.24 665.04ZM585.57 659.95C584.28 659.95 583.33 660.81 583.33 662.34L583.33 667.59L581.99 667.59L581.99 658.86L583.29 658.86L583.29 660.22L583.4 660.22C583.82 659.34 584.63 658.75 585.95 658.75C587.72 658.75 588.9 659.81 588.9 662.04L588.9 667.59L587.57 667.59L587.57 662.13C587.57 660.76 586.81 659.95 585.57 659.95ZM375.06 668.86C374.56 670.22 373.71 670.86 372.49 670.86C372.04 670.86 371.65 670.77 371.52 670.7L371.86 669.52C372.84 669.77 373.44 669.65 373.93 668.31L374.18 667.63L370.95 658.86L372.4 658.86L374.81 665.81L374.9 665.81L377.31 658.86L378.77 658.86L375.06 668.86ZM391.49 667.59L390.15 667.59L390.15 658.86L391.49 658.86L391.49 667.59ZM404.65 667.59L403.31 667.59L403.31 658.86L404.65 658.86L404.65 667.59ZM413.7 667.59L406.86 667.59L406.86 666.56L411.82 660.2L411.82 660.11L407.02 660.11L407.02 658.86L413.54 658.86L413.54 659.93L408.72 666.25L408.72 666.34L413.7 666.34L413.7 667.59ZM425.95 658.86L427.4 658.86L424.18 667.59L422.81 667.59L419.59 658.86L421.04 658.86L423.45 665.81L423.54 665.81L425.95 658.86ZM476.86 667.59L475.52 667.59L475.52 658.86L476.86 658.86L476.86 667.59ZM486.61 667.59L485.27 667.59L485.27 658.86L486.61 658.86L486.61 667.59ZM505.36 668.86C504.85 670.22 504 670.86 502.79 670.86C502.34 670.86 501.95 670.77 501.81 670.7L502.15 669.52C503.13 669.77 503.74 669.65 504.22 668.31L504.47 667.63L501.25 658.86L502.7 658.86L505.11 665.81L505.2 665.81L507.61 658.86L509.06 658.86L505.36 668.86ZM566.81 667.59L565.47 667.59L565.47 658.86L566.81 658.86L566.81 667.59ZM579.54 667.59L578.2 667.59L578.2 658.86L579.54 658.86L579.54 667.59ZM381.16 663.22C381.16 665.09 382.02 666.56 383.7 666.56C385.31 666.56 386.2 665.2 386.2 663.22C386.2 661.27 385.34 659.95 383.7 659.95C382 659.95 381.16 661.38 381.16 663.22ZM466.7 663.15C466.7 664.97 467.56 666.25 469.24 666.25C470.86 666.25 471.74 665.09 471.74 663.15C471.74 661.27 470.88 659.95 469.24 659.95C467.54 659.95 466.7 661.38 466.7 663.15ZM523.41 659.95C521.77 659.95 520.91 661.27 520.91 663.22C520.91 665.2 521.79 666.56 523.41 666.56C525.09 666.56 525.95 665.09 525.95 663.22C525.95 661.38 525.11 659.95 523.41 659.95ZM363.86 665.18C363.86 666.11 364.63 666.59 365.7 666.59C367.29 666.59 368.15 665.52 368.15 664.43L368.15 663.2C367.93 663.47 366.4 663.63 365.84 663.7C364.79 663.84 363.86 664.15 363.86 665.18ZM429.84 665.18C429.84 666.11 430.61 666.59 431.68 666.59C433.27 666.59 434.13 665.52 434.13 664.43L434.13 663.2C433.9 663.47 432.38 663.63 431.81 663.7C430.77 663.84 429.84 664.15 429.84 665.18ZM453.18 665.18C453.18 666.11 453.95 666.59 455.02 666.59C456.61 666.59 457.47 665.52 457.47 664.43L457.47 663.2C457.24 663.47 455.72 663.63 455.15 663.7C454.11 663.84 453.18 664.15 453.18 665.18ZM511.5 665.18C511.5 666.11 512.27 666.59 513.34 666.59C514.93 666.59 515.79 665.52 515.79 664.43L515.79 663.2C515.56 663.47 514.04 663.63 513.47 663.7C512.43 663.84 511.5 664.15 511.5 665.18ZM544.18 665.18C544.18 666.11 544.95 666.59 546.02 666.59C547.61 666.59 548.47 665.52 548.47 664.43L548.47 663.2C548.24 663.47 546.72 663.63 546.15 663.7C545.11 663.84 544.18 664.15 544.18 665.18Z" fill="#808080" fill-opacity="1.000000" fill-rule="evenodd"/>
				<path id="Eğer daha önce kayıt olduysanız ya da yarım kalan bir
kaydınız varsa giriş yapmak için tıklayın." d="M608.59 667.59L606.16 667.59L606.16 655.95L608.59 655.95L608.59 662.17L608.71 662.17L611.51 658.86L614.29 658.86L611.05 662.64L614.45 667.59L611.62 667.59L609.24 664.07L608.59 664.81L608.59 667.59ZM615.47 655.95L617.89 655.95L617.89 667.59L615.47 667.59L615.47 655.95ZM598.6 658.86L600.24 658.86L600.24 660.68L598.6 660.68L598.6 664.9C598.6 665.58 598.93 665.76 599.42 665.76C599.64 665.76 599.9 665.7 600.02 665.68L600.4 667.48C600.15 667.56 599.71 667.68 599.08 667.71C597.33 667.78 596.17 666.93 596.18 665.22L596.18 660.68L594.98 660.68L594.98 658.86L596.18 658.86L596.18 656.77L598.6 656.77L598.6 658.86ZM624.86 666.38C624.44 667.19 623.61 667.75 622.31 667.75C620.65 667.75 619.42 666.88 619.42 665.15C619.42 663.2 620.97 662.62 622.7 662.46C624.21 662.31 624.81 662.24 624.81 661.68L624.81 661.65C624.81 660.93 624.34 660.51 623.51 660.51C622.64 660.51 622.12 660.94 621.96 661.52L619.72 661.34C620.06 659.75 621.43 658.75 623.52 658.75C625.47 658.75 627.23 659.62 627.23 661.7L627.23 667.59L624.93 667.59L624.93 666.38L624.86 666.38ZM646.59 660.76C645.61 660.76 644.94 661.41 644.94 662.54L644.94 667.59L642.52 667.59L642.52 658.86L644.83 658.86L644.83 660.4L644.93 660.4C645.32 659.38 646.26 658.75 647.55 658.75C649.37 658.75 650.56 660 650.56 662.03L650.56 667.59L648.14 667.59L648.14 662.46C648.15 661.4 647.56 660.76 646.59 660.76ZM604.23 667.59L601.81 667.59L601.81 658.86L604.23 658.86L604.23 667.59ZM633.54 668.53C633.04 669.94 632.09 670.86 630.29 670.86C629.67 670.86 629.11 670.76 628.76 670.61L629.31 668.8C630.16 669.06 630.77 669.02 631.09 668.21L631.23 667.84L628.1 658.86L630.64 658.86L632.45 665.27L632.54 665.27L634.36 658.86L636.93 658.86L633.54 668.53ZM640.59 667.59L638.16 667.59L638.16 658.86L640.59 658.86L640.59 667.59ZM621.73 665.07C621.73 665.74 622.26 666.08 623.01 666.08C624.07 666.08 624.82 665.38 624.82 664.47L624.82 663.54C624.53 663.74 623.67 663.86 623.14 663.93C622.29 664.05 621.73 664.39 621.73 665.07ZM655.25 666.37C655.24 667.13 654.61 667.74 653.88 667.74C653.13 667.74 652.51 667.13 652.52 666.37C652.51 665.63 653.13 665.02 653.88 665.02C654.61 665.02 655.24 665.63 655.25 666.37Z" fill="#D71923" fill-opacity="1.000000" fill-rule="evenodd"/>
			</g>
		</g>
	</g>
</svg>
