<svg width="144.049561" height="88.365021" viewBox="0 0 144.05 88.365" fill="none" xmlns="http://www.w3.org/2000/svg" xmlns:xlink="http://www.w3.org/1999/xlink">
	<desc>
			Created with Pixso.
	</desc>
	<defs/>
	<g style="mix-blend-mode:normal">
		<path id="Path 1" d="M5.15 85.58L8.6 77.17L10.22 77.17L5.56 88.12L4.71 88.12L0 77.17L1.69 77.17L5.15 85.58Z" fill="#FFFFFF" fill-opacity="1.000000" fill-rule="nonzero"/>
		<path id="Path 1" d="M8.6 77.17L10.22 77.17L5.56 88.12L4.71 88.12L0 77.17L1.69 77.17L5.15 85.58L8.6 77.17Z" stroke="#707070" stroke-opacity="0" stroke-width="1.000000"/>
	</g>
	<g style="mix-blend-mode:normal">
		<path id="Path 2" d="M18.53 76.32C18.26 76.33 17.99 76.22 17.79 76.02C17.59 75.83 17.48 75.57 17.49 75.29C17.49 75.02 17.59 74.76 17.79 74.58C17.99 74.39 18.26 74.29 18.53 74.3C18.8 74.3 19.05 74.4 19.24 74.59C19.43 74.77 19.54 75.02 19.54 75.29C19.55 75.84 19.08 76.31 18.53 76.32ZM17.78 88.12L17.78 77.17L19.26 77.17L19.26 88.12L17.78 88.12Z" fill="#FFFFFF" fill-opacity="1.000000" fill-rule="nonzero"/>
		<path id="Path 2" d="M17.79 76.02C17.59 75.83 17.48 75.57 17.49 75.29C17.49 75.02 17.59 74.76 17.79 74.58C17.99 74.39 18.26 74.29 18.53 74.3C18.8 74.3 19.05 74.4 19.24 74.59C19.43 74.77 19.54 75.02 19.54 75.29C19.55 75.84 19.08 76.31 18.53 76.32C18.26 76.33 17.99 76.22 17.79 76.02ZM17.78 77.17L19.26 77.17L19.26 88.12L17.78 88.12L17.78 77.17Z" stroke="#707070" stroke-opacity="0" stroke-width="1.000000"/>
	</g>
	<g style="mix-blend-mode:normal">
		<path id="Path 3" d="M35.1 88.12L26.91 88.12L26.91 87.23L32.86 78.59L27.18 78.59L27.18 77.19L34.94 77.19L34.94 78.13L29.05 86.73L35.1 86.73L35.1 88.12Z" fill="#FFFFFF" fill-opacity="1.000000" fill-rule="nonzero"/>
		<path id="Path 3" d="M26.91 88.12L26.91 87.23L32.86 78.59L27.18 78.59L27.18 77.19L34.94 77.19L34.94 78.13L29.05 86.73L35.1 86.73L35.1 88.12L26.91 88.12Z" stroke="#707070" stroke-opacity="0" stroke-width="1.000000"/>
	</g>
	<g style="mix-blend-mode:normal">
		<path id="Path 4" d="M49.73 88.12L42.91 88.12L42.91 77.17L49.73 77.17L49.73 78.58L44.39 78.58L44.39 81.86L49.33 81.86L49.33 83.26L44.39 83.26L44.39 86.72L49.73 86.72L49.73 88.12Z" fill="#FFFFFF" fill-opacity="1.000000" fill-rule="nonzero"/>
		<path id="Path 4" d="M42.91 88.12L42.91 77.17L49.73 77.17L49.73 78.58L44.39 78.58L44.39 81.86L49.33 81.86L49.33 83.26L44.39 83.26L44.39 86.72L49.73 86.72L49.73 88.12L42.91 88.12Z" stroke="#707070" stroke-opacity="0" stroke-width="1.000000"/>
	</g>
	<g style="mix-blend-mode:normal">
		<path id="Path 5" d="M66.27 88.12L64.66 88.12L63.55 85.28L59.39 85.28L58.28 88.12L56.66 88.12L61.09 77.17L61.89 77.17L66.27 88.12ZM63.05 83.89L61.48 79.76L59.89 83.89L63.05 83.89Z" fill="#FFFFFF" fill-opacity="1.000000" fill-rule="nonzero"/>
		<path id="Path 5" d="M64.66 88.12L63.55 85.28L59.39 85.28L58.28 88.12L56.66 88.12L61.09 77.17L61.89 77.17L66.27 88.12L64.66 88.12ZM61.48 79.76L59.89 83.89L63.05 83.89L61.48 79.76Z" stroke="#707070" stroke-opacity="0" stroke-width="1.000000"/>
	</g>
	<g style="mix-blend-mode:normal">
		<path id="Path 6" d="M81.13 88.12L73.77 88.12L73.77 77.17L75.25 77.17L75.25 86.69L81.13 86.69L81.13 88.12Z" fill="#FFFFFF" fill-opacity="1.000000" fill-rule="nonzero"/>
		<path id="Path 6" d="M73.77 88.12L73.77 77.17L75.25 77.17L75.25 86.69L81.13 86.69L81.13 88.12L73.77 88.12Z" stroke="#707070" stroke-opacity="0" stroke-width="1.000000"/>
	</g>
	<g style="mix-blend-mode:normal">
		<path id="Path 7" d="M88.02 87.4C88.02 87.15 88.12 86.92 88.3 86.75C88.68 86.39 89.27 86.39 89.65 86.75C89.82 86.92 89.92 87.15 89.92 87.4C89.93 87.65 89.83 87.9 89.65 88.09C89.27 88.45 88.67 88.45 88.3 88.09C88.12 87.9 88.02 87.65 88.02 87.4Z" fill="#FFFFFF" fill-opacity="1.000000" fill-rule="nonzero"/>
		<path id="Path 7" d="M88.3 86.75C88.68 86.39 89.27 86.39 89.65 86.75C89.82 86.92 89.92 87.15 89.92 87.4C89.93 87.65 89.83 87.9 89.65 88.09C89.27 88.45 88.67 88.45 88.3 88.09C88.12 87.9 88.02 87.65 88.02 87.4C88.02 87.15 88.12 86.92 88.3 86.75Z" stroke="#707070" stroke-opacity="0" stroke-width="1.000000"/>
	</g>
	<g style="mix-blend-mode:normal">
		<path id="Path 8" d="M102.22 88.28C100.73 88.32 99.28 87.76 98.21 86.72C97.13 85.66 96.54 84.2 96.58 82.69C96.53 81.15 97.14 79.66 98.24 78.6C99.31 77.54 100.76 76.95 102.26 76.98C103.22 76.97 104.16 77.2 105.01 77.65C105.82 78.04 106.5 78.64 106.98 79.38L105.89 80.3C105.08 79.11 103.73 78.4 102.29 78.42C101.17 78.4 100.1 78.84 99.32 79.63C98.51 80.44 98.08 81.55 98.11 82.7C98.03 84.92 99.77 86.78 101.99 86.86C102.08 86.86 102.18 86.86 102.28 86.86C102.99 86.87 103.69 86.7 104.32 86.37C104.95 86.04 105.51 85.58 105.95 85.01L107.01 85.92C106.48 86.65 105.78 87.25 104.96 87.65C104.11 88.07 103.17 88.29 102.22 88.28Z" fill="#FFFFFF" fill-opacity="1.000000" fill-rule="nonzero"/>
		<path id="Path 8" d="M98.21 86.72C97.13 85.66 96.54 84.2 96.58 82.69C96.53 81.15 97.14 79.66 98.24 78.6C99.31 77.54 100.76 76.95 102.26 76.98C103.22 76.97 104.16 77.2 105.01 77.65C105.82 78.04 106.5 78.64 106.98 79.38L105.89 80.3C105.08 79.11 103.73 78.4 102.29 78.42C101.17 78.4 100.1 78.84 99.32 79.63C98.51 80.44 98.08 81.55 98.11 82.7C98.03 84.92 99.77 86.78 101.99 86.86C102.08 86.86 102.18 86.86 102.28 86.86C102.99 86.87 103.69 86.7 104.32 86.37C104.95 86.04 105.51 85.58 105.95 85.01L107.01 85.92C106.48 86.65 105.78 87.25 104.96 87.65C104.11 88.07 103.17 88.29 102.22 88.28C100.73 88.32 99.28 87.76 98.21 86.72Z" stroke="#707070" stroke-opacity="0" stroke-width="1.000000"/>
	</g>
	<g style="mix-blend-mode:normal">
		<path id="Path 9" d="M113.87 82.72C113.84 81.19 114.45 79.72 115.53 78.65C117.74 76.45 121.32 76.45 123.53 78.65C125.74 80.87 125.74 84.45 123.53 86.65C122.47 87.73 121.01 88.32 119.49 88.3C116.45 88.36 113.93 85.94 113.87 82.9C113.87 82.84 113.87 82.78 113.87 82.72ZM123.66 82.67C123.7 81.55 123.26 80.45 122.47 79.65C120.87 78.04 118.26 78.02 116.64 79.62C115.06 81.3 115.02 83.97 116.61 85.65C118.24 87.25 120.85 87.25 122.48 85.65C123.27 84.87 123.7 83.79 123.66 82.67Z" fill="#FFFFFF" fill-opacity="1.000000" fill-rule="nonzero"/>
		<path id="Path 9" d="M115.53 78.65C117.74 76.45 121.32 76.45 123.53 78.65C125.74 80.87 125.74 84.45 123.53 86.65C122.47 87.73 121.01 88.32 119.49 88.3C116.45 88.36 113.93 85.94 113.87 82.9C113.87 82.84 113.87 82.78 113.87 82.72C113.84 81.19 114.45 79.72 115.53 78.65ZM122.47 79.65C120.87 78.04 118.26 78.02 116.64 79.62C115.06 81.3 115.02 83.97 116.61 85.65C118.24 87.25 120.85 87.25 122.48 85.65C123.27 84.87 123.7 83.79 123.66 82.67C123.7 81.55 123.26 80.45 122.47 79.65Z" stroke="#707070" stroke-opacity="0" stroke-width="1.000000"/>
	</g>
	<g style="mix-blend-mode:normal">
		<path id="Path 10" d="M134.65 88.12L133.18 88.12L133.18 77.17L133.89 77.17L138.62 84.12L143.32 77.17L144.05 77.17L144.05 88.12L142.56 88.12L142.56 80.73L138.8 86.26L138.41 86.26L134.66 80.73L134.65 88.12Z" fill="#FFFFFF" fill-opacity="1.000000" fill-rule="nonzero"/>
		<path id="Path 10" d="M133.18 88.12L133.18 77.17L133.89 77.17L138.62 84.12L143.32 77.17L144.05 77.17L144.05 88.12L142.56 88.12L142.56 80.73L138.8 86.26L138.41 86.26L134.66 80.73L134.65 88.12L133.18 88.12Z" stroke="#707070" stroke-opacity="0" stroke-width="1.000000"/>
	</g>
	<g style="mix-blend-mode:normal">
		<path id="Path 11" d="M115.7 36.05L113.51 36.05C113.26 36.06 113.06 35.86 113.06 35.61L113.13 26.16C113.13 26.16 113.56 22.91 112.99 17.55C112.57 22.33 111.8 23.28 111.75 23.34C107.86 26.12 104.37 30.67 103.47 32.33C103.4 32.47 103.25 32.56 103.09 32.56L98.7 32.56C98.46 32.56 98.28 32.75 98.28 32.98L98.28 33.4C98.28 33.64 98.47 33.82 98.7 33.82L101.57 33.82C101.81 33.81 102.01 33.98 102.03 34.21C102.03 34.31 102.01 34.41 101.95 34.49C100.72 36.49 97.17 42.65 96.14 49.08C94.92 56.7 95.16 64.04 96.52 68.42C96.58 68.62 96.79 68.75 96.99 68.72L99.15 68.45C99.38 68.43 99.56 68.23 99.54 68C99.2 65.75 97.77 55.49 99.16 49.32C99.2 49.12 99.38 48.98 99.58 48.99L109.11 48.99C109.35 48.99 109.53 49.17 109.54 49.41C109.49 51.83 109.19 63.34 108.27 67.64C108.21 67.86 108.34 68.09 108.57 68.15C109.84 68.3 111.78 68.56 112.66 68.68C112.88 68.72 113.11 68.57 113.15 68.34L113.15 38.47C113.15 38.24 113.35 38.05 113.58 38.05L115.67 38.05C115.9 38.05 116.09 37.86 116.09 37.63L116.09 36.49C116.1 36.26 115.93 36.06 115.7 36.05ZM110.09 36.17C110.09 36.17 108.25 36.36 108.64 36.87C108.95 37.4 109.46 37.77 110.05 37.89C109.86 40.86 109.74 47.05 109.74 47.05L99.73 46.85C99.73 46.85 100.82 39.77 104.26 34.53C107.71 29.29 110.13 26.62 110.45 26.48C109.99 35.89 110.09 36.17 110.09 36.17Z" fill="#FFFFFF" fill-opacity="1.000000" fill-rule="nonzero"/>
		<path id="Path 11" d="M113.51 36.05C113.26 36.06 113.06 35.86 113.06 35.61L113.13 26.16C113.13 26.16 113.56 22.91 112.99 17.55C112.57 22.33 111.8 23.28 111.75 23.34C107.86 26.12 104.37 30.67 103.47 32.33C103.4 32.47 103.25 32.56 103.09 32.56L98.7 32.56C98.46 32.56 98.28 32.75 98.28 32.98L98.28 33.4C98.28 33.64 98.47 33.82 98.7 33.82L101.57 33.82C101.81 33.81 102.01 33.98 102.03 34.21C102.03 34.31 102.01 34.41 101.95 34.49C100.72 36.49 97.17 42.65 96.14 49.08C94.92 56.7 95.16 64.04 96.52 68.42C96.58 68.62 96.79 68.75 96.99 68.72L99.15 68.45C99.38 68.43 99.56 68.23 99.54 68C99.2 65.75 97.77 55.49 99.16 49.32C99.2 49.12 99.38 48.98 99.58 48.99L109.11 48.99C109.35 48.99 109.53 49.17 109.54 49.41C109.49 51.83 109.19 63.34 108.27 67.64C108.21 67.86 108.34 68.09 108.57 68.15C109.84 68.3 111.78 68.56 112.66 68.68C112.88 68.72 113.11 68.57 113.15 68.34L113.15 38.47C113.15 38.24 113.35 38.05 113.58 38.05L115.67 38.05C115.9 38.05 116.09 37.86 116.09 37.63L116.09 36.49C116.1 36.26 115.93 36.06 115.7 36.05L113.51 36.05ZM108.64 36.87C108.95 37.4 109.46 37.77 110.05 37.89C109.86 40.86 109.74 47.05 109.74 47.05L99.73 46.85C99.73 46.85 100.82 39.77 104.26 34.53C107.71 29.29 110.13 26.62 110.45 26.48C109.99 35.89 110.09 36.17 110.09 36.17C110.09 36.17 108.25 36.36 108.64 36.87Z" stroke="#707070" stroke-opacity="0" stroke-width="1.000000"/>
	</g>
	<g style="mix-blend-mode:normal">
		<path id="Path 12" d="M104.18 33.62L110.23 33.78L104.18 33.93L104.18 33.62Z" fill="#FFFFFF" fill-opacity="1.000000" fill-rule="nonzero"/>
		<path id="Path 12" d="M110.23 33.78L104.18 33.93L104.18 33.62L110.23 33.78Z" stroke="#707070" stroke-opacity="0" stroke-width="1.000000"/>
	</g>
	<g style="mix-blend-mode:normal">
		<path id="Path 13" d="M104.18 35.53L110.23 35.69L104.18 35.84L104.18 35.53Z" fill="#FFFFFF" fill-opacity="1.000000" fill-rule="nonzero"/>
		<path id="Path 13" d="M110.23 35.69L104.18 35.84L104.18 35.53L110.23 35.69Z" stroke="#707070" stroke-opacity="0" stroke-width="1.000000"/>
	</g>
	<g style="mix-blend-mode:normal">
		<path id="Path 14" d="M104.18 37.45L110.23 37.6L104.18 37.75L104.18 37.45Z" fill="#FFFFFF" fill-opacity="1.000000" fill-rule="nonzero"/>
		<path id="Path 14" d="M110.23 37.6L104.18 37.75L104.18 37.45L110.23 37.6Z" stroke="#707070" stroke-opacity="0" stroke-width="1.000000"/>
	</g>
	<g style="mix-blend-mode:normal">
		<path id="Path 15" d="M101.67 39.35L110.23 39.51L101.67 39.66L101.67 39.35Z" fill="#FFFFFF" fill-opacity="1.000000" fill-rule="nonzero"/>
		<path id="Path 15" d="M110.23 39.51L101.67 39.66L101.67 39.35L110.23 39.51Z" stroke="#707070" stroke-opacity="0" stroke-width="1.000000"/>
	</g>
	<g style="mix-blend-mode:normal">
		<path id="Path 16" d="M101.67 41.27L110.23 41.42L101.67 41.57L101.67 41.27Z" fill="#FFFFFF" fill-opacity="1.000000" fill-rule="nonzero"/>
		<path id="Path 16" d="M110.23 41.42L101.67 41.57L101.67 41.27L110.23 41.42Z" stroke="#707070" stroke-opacity="0" stroke-width="1.000000"/>
	</g>
	<g style="mix-blend-mode:normal">
		<path id="Path 17" d="M101.67 43.18L110.23 43.33L101.67 43.48L101.67 43.18Z" fill="#FFFFFF" fill-opacity="1.000000" fill-rule="nonzero"/>
		<path id="Path 17" d="M110.23 43.33L101.67 43.48L101.67 43.18L110.23 43.33Z" stroke="#707070" stroke-opacity="0" stroke-width="1.000000"/>
	</g>
	<g style="mix-blend-mode:normal">
		<path id="Path 18" d="M101.67 45.08L110.23 45.24L101.67 45.39L101.67 45.08Z" fill="#FFFFFF" fill-opacity="1.000000" fill-rule="nonzero"/>
		<path id="Path 18" d="M110.23 45.24L101.67 45.39L101.67 45.08L110.23 45.24Z" stroke="#707070" stroke-opacity="0" stroke-width="1.000000"/>
	</g>
	<g style="mix-blend-mode:normal">
		<path id="Path 19" d="M99.87 50.44L107.2 50.6L99.87 50.75L99.87 50.44Z" fill="#FFFFFF" fill-opacity="1.000000" fill-rule="nonzero"/>
		<path id="Path 19" d="M107.2 50.6L99.87 50.75L99.87 50.44L107.2 50.6Z" stroke="#707070" stroke-opacity="0" stroke-width="1.000000"/>
	</g>
	<g style="mix-blend-mode:normal">
		<path id="Path 20" d="M99.87 52.99L107.2 53.14L99.87 53.29L99.87 52.99Z" fill="#FFFFFF" fill-opacity="1.000000" fill-rule="nonzero"/>
		<path id="Path 20" d="M107.2 53.14L99.87 53.29L99.87 52.99L107.2 53.14Z" stroke="#707070" stroke-opacity="0" stroke-width="1.000000"/>
	</g>
	<g style="mix-blend-mode:normal">
		<path id="Path 21" d="M99.87 55.54L107.2 55.69L99.87 55.84L99.87 55.54Z" fill="#FFFFFF" fill-opacity="1.000000" fill-rule="nonzero"/>
		<path id="Path 21" d="M107.2 55.69L99.87 55.84L99.87 55.54L107.2 55.69Z" stroke="#707070" stroke-opacity="0" stroke-width="1.000000"/>
	</g>
	<g style="mix-blend-mode:normal">
		<path id="Path 22" d="M98.65 58.08L107.21 58.24L98.65 58.39L98.65 58.08Z" fill="#FFFFFF" fill-opacity="1.000000" fill-rule="nonzero"/>
		<path id="Path 22" d="M107.21 58.24L98.65 58.39L98.65 58.08L107.21 58.24Z" stroke="#707070" stroke-opacity="0" stroke-width="1.000000"/>
	</g>
	<g style="mix-blend-mode:normal">
		<path id="Path 23" d="M98.65 60.63L107.21 60.78L98.65 60.94L98.65 60.63Z" fill="#FFFFFF" fill-opacity="1.000000" fill-rule="nonzero"/>
		<path id="Path 23" d="M107.21 60.78L98.65 60.94L98.65 60.63L107.21 60.78Z" stroke="#707070" stroke-opacity="0" stroke-width="1.000000"/>
	</g>
	<g style="mix-blend-mode:normal">
		<path id="Path 24" d="M98.65 63.18L107.21 63.33L98.65 63.48L98.65 63.18Z" fill="#FFFFFF" fill-opacity="1.000000" fill-rule="nonzero"/>
		<path id="Path 24" d="M107.21 63.33L98.65 63.48L98.65 63.18L107.21 63.33Z" stroke="#707070" stroke-opacity="0" stroke-width="1.000000"/>
	</g>
	<g style="mix-blend-mode:normal">
		<path id="Path 25" d="M98.65 65.72L107.21 65.87L98.65 66.03L98.65 65.72Z" fill="#FFFFFF" fill-opacity="1.000000" fill-rule="nonzero"/>
		<path id="Path 25" d="M107.21 65.87L98.65 66.03L98.65 65.72L107.21 65.87Z" stroke="#707070" stroke-opacity="0" stroke-width="1.000000"/>
	</g>
	<g style="mix-blend-mode:normal">
		<path id="Path 26" d="M118.41 68.76L144.04 68.76L144.04 66.47L141.77 66.47L141.77 64.88L139.81 64.88L139.03 52.1L137.5 52.1L136.96 41.07L135.66 40.37L135.31 29.37L133.71 28.7L133.48 17.4L132.26 16.68L132.03 11.06L131.23 10.74L131.23 6.83L130.89 6.69L130.93 3.79L130.62 3.79L130.39 0L130.31 4.26L129.91 4.31L129.91 5.85L129.52 5.91L129.64 8.86L129.13 9.03L129.17 11.96L128.78 12.05L128.74 15.64L128.27 16.07L128.27 20.82L127.22 21.32L127.1 32.24L125.77 32.52L125.54 43.91L124.25 43.91L124.05 55.09L122.44 55.12L121.9 64.91L120.29 64.88L120.14 65.89L118.41 66.07L118.41 68.76Z" fill="#FFFFFF" fill-opacity="1.000000" fill-rule="nonzero"/>
		<path id="Path 26" d="M144.04 68.76L144.04 66.47L141.77 66.47L141.77 64.88L139.81 64.88L139.03 52.1L137.5 52.1L136.96 41.07L135.66 40.37L135.31 29.37L133.71 28.7L133.48 17.4L132.26 16.68L132.03 11.06L131.23 10.74L131.23 6.83L130.89 6.69L130.93 3.79L130.62 3.79L130.39 0L130.31 4.26L129.91 4.31L129.91 5.85L129.52 5.91L129.64 8.86L129.13 9.03L129.17 11.96L128.78 12.05L128.74 15.64L128.27 16.07L128.27 20.82L127.22 21.32L127.1 32.24L125.77 32.52L125.54 43.91L124.25 43.91L124.05 55.09L122.44 55.12L121.9 64.91L120.29 64.88L120.14 65.89L118.41 66.07L118.41 68.76L144.04 68.76Z" stroke="#707070" stroke-opacity="0" stroke-width="1.000000"/>
	</g>
	<g style="mix-blend-mode:normal">
		<path id="Path 27" d="M33.02 49.06C33.09 54.29 30.99 59.31 27.21 62.93C23.59 66.68 18.58 68.78 13.36 68.72L0 68.72L0 29.33L11.43 29.33C17.71 29.33 22.88 31.21 26.94 34.96C31 38.72 33.03 43.42 33.02 49.06ZM29.03 48.49C28.99 44.25 27.1 40.23 23.86 37.48C20.62 34.55 16.39 32.96 12.03 33.02L3.81 33.02L3.81 65.02L13.15 65.02C17.48 65.09 21.63 63.31 24.56 60.12C27.6 57.04 29.23 52.82 29.03 48.49Z" fill="#FFFFFF" fill-opacity="1.000000" fill-rule="nonzero"/>
		<path id="Path 27" d="M27.21 62.93C23.59 66.68 18.58 68.78 13.36 68.72L0 68.72L0 29.33L11.43 29.33C17.71 29.33 22.88 31.21 26.94 34.96C31 38.72 33.03 43.42 33.02 49.06C33.09 54.29 30.99 59.31 27.21 62.93ZM23.86 37.48C20.62 34.55 16.39 32.96 12.03 33.02L3.81 33.02L3.81 65.02L13.15 65.02C17.48 65.09 21.63 63.31 24.56 60.12C27.6 57.04 29.23 52.82 29.03 48.49C28.99 44.25 27.1 40.23 23.86 37.48Z" stroke="#707070" stroke-opacity="0" stroke-width="1.000000"/>
	</g>
	<g style="mix-blend-mode:normal">
		<path id="Path 28" d="M63.22 55.92C63.31 59.57 61.87 63.09 59.25 65.63C56.73 68.19 53.25 69.58 49.65 69.44C46.13 69.48 42.75 68.04 40.34 65.48C37.81 62.86 36.55 59.63 36.55 55.78L36.55 29.25L40.43 29.25L40.43 55.08C40.35 57.83 41.31 60.51 43.1 62.6C44.79 64.58 47.28 65.71 49.88 65.65C52.41 65.69 54.84 64.67 56.58 62.83C58.4 60.97 59.39 58.45 59.32 55.85L59.32 29.25L63.21 29.25L63.22 55.92Z" fill="#FFFFFF" fill-opacity="1.000000" fill-rule="nonzero"/>
		<path id="Path 28" d="M59.25 65.63C56.73 68.19 53.25 69.58 49.65 69.44C46.13 69.48 42.75 68.04 40.34 65.48C37.81 62.86 36.55 59.63 36.55 55.78L36.55 29.25L40.43 29.25L40.43 55.08C40.35 57.83 41.31 60.51 43.1 62.6C44.79 64.58 47.28 65.71 49.88 65.65C52.41 65.69 54.84 64.67 56.58 62.83C58.4 60.97 59.39 58.45 59.32 55.85L59.32 29.25L63.21 29.25L63.22 55.92C63.31 59.57 61.87 63.09 59.25 65.63Z" stroke="#707070" stroke-opacity="0" stroke-width="1.000000"/>
	</g>
	<g style="mix-blend-mode:normal">
		<path id="Path 29" d="M92.19 57.5C92.3 60.64 91.11 63.3 88.64 65.46C86.25 67.6 83.15 68.75 79.96 68.71L67.42 68.71L67.42 29.3L78.58 29.3C81.53 29.23 84.41 30.21 86.71 32.06C89.13 34.01 90.35 36.47 90.35 39.43C90.35 42.95 88.85 45.69 85.84 47.63C89.91 49.54 92.02 52.83 92.19 57.5ZM78.5 32.98L71.51 32.98L71.51 46.15L78.71 46.15C80.67 46.18 82.58 45.54 84.13 44.34C85.62 43.25 86.5 41.5 86.47 39.65C86.54 37.69 85.61 35.81 84 34.69C82.41 33.52 80.47 32.91 78.5 32.98ZM88.15 57.12C88.01 54.64 87.02 52.75 85.18 51.46C83.51 50.3 81.28 49.72 78.48 49.72L71.51 49.72L71.51 64.93L78.68 64.93C81.71 64.93 84.09 64.21 85.79 62.78C87.48 61.41 88.36 59.28 88.15 57.12Z" fill="#FFFFFF" fill-opacity="1.000000" fill-rule="nonzero"/>
		<path id="Path 29" d="M88.64 65.46C86.25 67.6 83.15 68.75 79.96 68.71L67.42 68.71L67.42 29.3L78.58 29.3C81.53 29.23 84.41 30.21 86.71 32.06C89.13 34.01 90.35 36.47 90.35 39.43C90.35 42.95 88.85 45.69 85.84 47.63C89.91 49.54 92.02 52.83 92.19 57.5C92.3 60.64 91.11 63.3 88.64 65.46ZM71.51 32.98L71.51 46.15L78.71 46.15C80.67 46.18 82.58 45.54 84.13 44.34C85.62 43.25 86.5 41.5 86.47 39.65C86.54 37.69 85.61 35.81 84 34.69C82.41 33.52 80.47 32.91 78.5 32.98L71.51 32.98ZM85.18 51.46C83.51 50.3 81.28 49.72 78.48 49.72L71.51 49.72L71.51 64.93L78.68 64.93C81.71 64.93 84.09 64.21 85.79 62.78C87.48 61.41 88.36 59.28 88.15 57.12C88.01 54.64 87.02 52.75 85.18 51.46Z" stroke="#707070" stroke-opacity="0" stroke-width="1.000000"/>
	</g>
</svg>
